<svg xmlns="http://www.w3.org/2000/svg" width="16" height="16" viewBox="0 0 24 24" fill="none" class="injected-svg" data-src="/static/media/pencil.4f204933.svg?type=svg" xmlns:xlink="http://www.w3.org/1999/xlink">
<path d="M8.00257 22.0002H2.91134C2.66961 22.0002 2.43777 21.9041 2.26684 21.7332C2.09591 21.5623 1.99988 21.3304 1.99988 21.0887V15.9975C1.99988 15.8778 2.02345 15.7592 2.06926 15.6487C2.11506 15.5381 2.1822 15.4376 2.26684 15.353L15.9388 1.68102C16.1097 1.51009 16.3415 1.41406 16.5833 1.41406C16.825 1.41406 17.0568 1.51009 17.2278 1.68102L22.319 6.77226C22.4899 6.94319 22.586 7.17502 22.586 7.41676C22.586 7.65849 22.4899 7.89033 22.319 8.06126L8.64707 21.7332C8.56244 21.8178 8.46196 21.885 8.35137 21.9308C8.24079 21.9766 8.12227 22.0002 8.00257 22.0002Z" stroke="#FFFFFF" stroke-width="1.5" stroke-linecap="round" stroke-linejoin="round"></path>
<path d="M12.9374 4.68262L19.3176 11.0629" stroke="#FFFFFF" stroke-width="1.5" stroke-linecap="round" stroke-linejoin="round"></path>
<path d="M8.32189 21.9418L2.05786 15.6777" stroke="#FFFFFF" stroke-width="1.5" stroke-linecap="round" stroke-linejoin="round"></path>
</svg>