<svg xmlns="http://www.w3.org/2000/svg" width="24" height="24" viewBox="0 0 24 24" fill="none" class="injected-svg" data-src="/static/media/moon.a38c42a8.svg?type=svg" xmlns:xlink="http://www.w3.org/1999/xlink">
<path d="M19.6463 17.627C17.9835 17.4875 16.3875 16.9089 15.0216 15.9503C13.6558 14.9918 12.569 13.6877 11.8724 12.1714C11.1757 10.6551 10.8943 8.98096 11.0569 7.32023C11.2194 5.6595 11.8201 4.07173 12.7975 2.71926L12.7977 2.71943C11.1574 2.58229 9.50986 2.87732 8.01912 3.57513C6.52839 4.27294 5.24651 5.34917 4.30119 6.69662C3.35587 8.04406 2.7801 9.61568 2.63125 11.2549C2.48239 12.8941 2.76565 14.5438 3.45279 16.0394C4.13994 17.5351 5.20699 18.8247 6.54764 19.7796C7.8883 20.7345 9.45576 21.3215 11.0939 21.482C12.732 21.6426 14.3836 21.3711 15.8842 20.6947C17.3847 20.0183 18.6818 18.9605 19.6463 17.6267L19.6463 17.627Z" stroke="#878FB1" stroke-width="1.5" stroke-linejoin="round"></path>
</svg>