<svg xmlns="http://www.w3.org/2000/svg" width="24" height="24" viewBox="0 0 24 24" fill="none" class="injected-svg" data-src="/static/media/payfit.cf676986.svg?type=svg" xmlns:xlink="http://www.w3.org/1999/xlink">
<path d="M12.0065 0C18.6321 0 24 5.37431 24 12C24 18.6257 18.6321 24 12.0065 24C5.38088 24 0 18.6257 0 12C0 5.37431 5.36791 0 12.0065 0ZM9.76337 6.41493H7.98703C7.85737 6.41493 7.74068 6.50714 7.71475 6.63886V6.69155V16.3074C7.71475 17.4665 8.66126 18.4149 9.81523 18.4149C10.9822 18.4149 11.9157 17.4665 11.9157 16.3074C11.9157 16.281 11.9157 16.281 11.9157 16.2678V13.8836C11.9157 13.8178 11.9546 13.7651 12.0194 13.7519L12.0583 13.7387H14.859C16.8169 13.6597 18.3728 12.0395 18.3728 10.0768C18.3728 8.10099 16.8169 6.49396 14.8331 6.41493H14.8071C14.5867 6.41493 12.9011 6.41493 9.76337 6.41493ZM12.175 7.49506H14.7034C16.1297 7.49506 17.2966 8.65423 17.2966 10.0768C17.2966 11.4731 16.1945 12.6059 14.8071 12.6586H12.0583C11.9806 12.6586 11.9157 12.5928 11.9287 12.5137V10.7618C11.9287 10.6828 11.9806 10.6169 12.0583 10.6169H14.7034C15.0016 10.6169 15.235 10.3798 15.248 10.0768C15.248 9.77388 15.0016 9.53677 14.7034 9.53677H11.1118C10.9562 9.53677 10.8395 9.6685 10.8395 9.81339V16.2415C10.8655 16.8342 10.3987 17.3348 9.81523 17.3348C9.2577 17.3348 8.79092 16.8869 8.79092 16.3074C8.79092 16.281 8.79092 16.2678 8.79092 16.2547V7.62678C8.79092 7.54775 8.85575 7.49506 8.92058 7.49506H12.175Z" fill="#0F6FDE"></path>
</svg>