<svg width="177" height="73" viewBox="0 0 177 73" fill="none" xmlns="http://www.w3.org/2000/svg">
<path d="M74.4617 50.5802H74.2137L74.1154 50.8085C74.1114 50.8183 73.6648 51.8316 72.6101 52.8272C71.2072 54.1514 69.4423 54.8224 67.3645 54.8224C67.3311 54.8224 67.2976 54.8224 67.2642 54.8224C65.1923 54.8224 63.4411 54.1573 62.1957 52.8961C60.9088 51.5935 60.2418 49.7479 60.2694 47.556C60.2694 45.4271 60.9266 43.6759 62.1701 42.4875C63.3723 41.3365 65.0939 40.7285 67.1481 40.7285C67.1855 40.7285 67.2189 40.7285 67.2524 40.7285C69.3931 40.7285 71.1659 41.3974 72.5236 42.7177C73.5428 43.7094 73.9343 44.7168 73.9383 44.7266L74.0307 44.9686H74.2905H82.7177H83.1309L83.0915 44.5554C82.7925 41.3502 81.2164 38.4028 78.6526 36.2581C75.7996 33.8674 71.8959 32.6042 67.3665 32.6042C62.6895 32.6042 58.772 33.9599 56.0371 36.5217C53.2411 39.1524 51.7595 42.9833 51.7595 47.6072C51.7595 52.2645 53.247 56.1623 56.0607 58.8815C58.8488 61.5752 62.8194 62.9997 67.5416 62.9997C71.9195 62.9997 75.7209 61.7699 78.5326 59.4462C81.0826 57.3389 82.7629 54.3442 83.2627 51.0131L83.3276 50.5802H82.8889H74.4617ZM73.0155 52.9571C73.0371 52.9354 73.0607 52.9138 73.0824 52.8921C73.0607 52.9138 73.0391 52.9354 73.0155 52.9571ZM74.4538 50.9757C74.4597 50.9639 74.4617 50.958 74.4617 50.958C74.4617 50.958 74.4597 50.9639 74.4538 50.9757ZM73.2122 52.7544C73.2319 52.7347 73.2516 52.7131 73.2693 52.6934C73.2516 52.7151 73.2319 52.7347 73.2122 52.7544ZM73.3932 52.5557C73.409 52.536 73.4267 52.5183 73.4424 52.4986C73.4267 52.5183 73.409 52.538 73.3932 52.5557ZM73.5566 52.3609C73.5703 52.3432 73.5861 52.3255 73.5998 52.3097C73.5861 52.3255 73.5723 52.3432 73.5566 52.3609ZM73.7061 52.174C73.7179 52.1582 73.7317 52.1405 73.7435 52.1248C73.7317 52.1405 73.7199 52.1582 73.7061 52.174ZM73.8419 51.993C73.8517 51.9792 73.8635 51.9634 73.8733 51.9497C73.8635 51.9634 73.8517 51.9792 73.8419 51.993ZM73.9658 51.8178C73.9737 51.806 73.9816 51.7942 73.9894 51.7824C73.9816 51.7942 73.9737 51.806 73.9658 51.8178ZM74.074 51.6545C74.0799 51.6447 74.0858 51.6348 74.0917 51.627C74.0858 51.6348 74.0799 51.6447 74.074 51.6545ZM74.1665 51.505C74.1704 51.4971 74.1763 51.4892 74.1803 51.4833C74.1763 51.4892 74.1724 51.4971 74.1665 51.505ZM74.2492 51.3653C74.2511 51.3614 74.2551 51.3574 74.257 51.3535C74.2551 51.3574 74.2531 51.3614 74.2492 51.3653ZM74.316 51.2453C74.318 51.2433 74.32 51.2394 74.32 51.2374C74.32 51.2413 74.318 51.2433 74.316 51.2453ZM74.3692 51.1488C74.3711 51.1469 74.3711 51.143 74.3731 51.141C74.3711 51.143 74.3711 51.1469 74.3692 51.1488ZM74.4105 51.0662C74.4105 51.0662 74.4105 51.0642 74.4125 51.0642C74.4125 51.0642 74.4125 51.0642 74.4105 51.0662ZM72.8797 53.0909C72.8561 53.1145 72.8285 53.1381 72.803 53.1597C72.8285 53.1381 72.8561 53.1145 72.8797 53.0909ZM72.6613 53.2896C72.6338 53.3132 72.6042 53.3368 72.5767 53.3604C72.6042 53.3388 72.6338 53.3132 72.6613 53.2896ZM72.4272 53.4864C72.3957 53.5119 72.3642 53.5355 72.3307 53.5611C72.3642 53.5375 72.3957 53.5119 72.4272 53.4864ZM72.1773 53.6811C72.1438 53.7067 72.1064 53.7303 72.073 53.7559C72.1064 53.7303 72.1438 53.7067 72.1773 53.6811ZM71.9097 53.87C71.8723 53.8956 71.8329 53.9192 71.7936 53.9448C71.8329 53.9212 71.8723 53.8956 71.9097 53.87ZM71.6263 54.053C71.585 54.0786 71.5417 54.1022 71.5004 54.1278C71.5417 54.1022 71.585 54.0786 71.6263 54.053ZM71.3253 54.2281C71.28 54.2537 71.2328 54.2754 71.1876 54.3009C71.2348 54.2773 71.282 54.2537 71.3253 54.2281ZM71.0085 54.3934C70.9593 54.417 70.9082 54.4406 70.859 54.4623C70.9082 54.4406 70.9593 54.417 71.0085 54.3934ZM70.6721 54.5489C70.6189 54.5705 70.5658 54.5922 70.5107 54.6138C70.5658 54.5922 70.6209 54.5705 70.6721 54.5489ZM70.3199 54.6905C70.2648 54.7122 70.2057 54.7299 70.1487 54.7496C70.2057 54.7299 70.2628 54.7102 70.3199 54.6905ZM69.948 54.8184C69.889 54.8381 69.826 54.8538 69.767 54.8715C69.826 54.8538 69.887 54.8361 69.948 54.8184ZM69.5564 54.9286C69.4935 54.9443 69.4285 54.9601 69.3636 54.9739C69.4285 54.9601 69.4935 54.9463 69.5564 54.9286ZM69.1472 55.025C69.0803 55.0388 69.0114 55.0506 68.9425 55.0624C69.0114 55.0486 69.0803 55.0368 69.1472 55.025ZM68.7182 55.0998C68.6474 55.1096 68.5746 55.1195 68.5018 55.1273C68.5746 55.1195 68.6474 55.1096 68.7182 55.0998ZM68.2696 55.1549C68.1949 55.1628 68.1181 55.1667 68.0414 55.1726C68.1201 55.1667 68.1968 55.1628 68.2696 55.1549ZM67.8013 55.1883C67.7226 55.1923 67.6439 55.1923 67.5633 55.1942C67.6439 55.1923 67.7246 55.1923 67.8013 55.1883ZM72.4685 42.155C72.5118 42.1924 72.5551 42.2278 72.5964 42.2652C72.5551 42.2278 72.5118 42.1924 72.4685 42.155ZM67.4609 40.3566C67.5436 40.3586 67.6262 40.3585 67.7069 40.3625C67.6262 40.3585 67.5436 40.3586 67.4609 40.3566ZM67.9509 40.3782C68.0296 40.3841 68.1103 40.3881 68.187 40.3959C68.1103 40.3881 68.0296 40.3841 67.9509 40.3782ZM68.4192 40.4235C68.4959 40.4333 68.5726 40.4412 68.6454 40.453C68.5726 40.4412 68.4959 40.4314 68.4192 40.4235ZM68.8658 40.4884C68.9386 40.5002 69.0114 40.512 69.0822 40.5278C69.0134 40.514 68.9386 40.5002 68.8658 40.4884ZM69.2908 40.573C69.3597 40.5888 69.4305 40.6045 69.4994 40.6222C69.4325 40.6045 69.3616 40.5888 69.2908 40.573ZM69.6961 40.6773C69.763 40.697 69.8299 40.7147 69.8949 40.7344C69.8299 40.7147 69.763 40.695 69.6961 40.6773ZM70.0798 40.7954C70.1447 40.817 70.2097 40.8386 70.2707 40.8623C70.2077 40.8386 70.1428 40.817 70.0798 40.7954ZM70.4438 40.9311C70.5048 40.9547 70.5678 40.9803 70.6268 41.0059C70.5678 40.9783 70.5048 40.9547 70.4438 40.9311ZM70.7881 41.0787C70.8472 41.1062 70.9062 41.1318 70.9633 41.1594C70.9062 41.1318 70.8472 41.1043 70.7881 41.0787ZM71.1128 41.2361C71.1699 41.2656 71.2269 41.2951 71.28 41.3246C71.225 41.2951 71.1679 41.2656 71.1128 41.2361ZM71.4197 41.4053C71.4729 41.4368 71.528 41.4683 71.5791 41.4998C71.526 41.4683 71.4729 41.4368 71.4197 41.4053ZM71.707 41.5844C71.7582 41.6178 71.8093 41.6493 71.8585 41.6847C71.8093 41.6493 71.7582 41.6178 71.707 41.5844ZM71.9785 41.7693C72.0277 41.8047 72.075 41.8382 72.1222 41.8736C72.075 41.8382 72.0258 41.8047 71.9785 41.7693ZM72.2304 41.9602C72.2757 41.9956 72.3229 42.031 72.3662 42.0684C72.3229 42.031 72.2776 41.9956 72.2304 41.9602ZM72.8069 42.4639C72.7695 42.4265 72.7282 42.3891 72.6869 42.3517C72.7282 42.3891 72.7695 42.4265 72.8069 42.4639ZM73.9009 43.8333C73.9206 43.8648 73.9402 43.8983 73.9579 43.9278C73.9402 43.8983 73.9206 43.8648 73.9009 43.8333ZM72.8915 42.5505C72.9289 42.5878 72.9682 42.6272 73.0037 42.6646C72.9682 42.6272 72.9289 42.5878 72.8915 42.5505ZM73.0784 42.7452C73.1138 42.7846 73.1493 42.822 73.1827 42.8613C73.1493 42.8239 73.1138 42.7846 73.0784 42.7452ZM73.2516 42.942C73.285 42.9814 73.3185 43.0187 73.348 43.0581C73.3165 43.0187 73.2831 42.9794 73.2516 42.942ZM73.409 43.1329C73.4385 43.1702 73.47 43.2096 73.4995 43.247C73.47 43.2096 73.4385 43.1702 73.409 43.1329ZM73.5526 43.3198C73.5802 43.3572 73.6077 43.3946 73.6333 43.43C73.6077 43.3946 73.5802 43.3572 73.5526 43.3198ZM73.6805 43.4988C73.7061 43.5342 73.7317 43.5716 73.7553 43.6071C73.7317 43.5716 73.7061 43.5342 73.6805 43.4988ZM73.7966 43.6681C73.8202 43.7035 73.8438 43.7389 73.8635 43.7723C73.8419 43.7389 73.8182 43.7035 73.7966 43.6681ZM73.9914 43.9848C74.0091 44.0143 74.0268 44.0439 74.0426 44.0734C74.0248 44.0439 74.0071 44.0143 73.9914 43.9848ZM74.2787 44.5574C74.2885 44.581 74.2944 44.5948 74.2944 44.5948C74.2944 44.5948 74.2885 44.579 74.2787 44.5574ZM74.0701 44.1245C74.0839 44.1501 74.0976 44.1757 74.1114 44.1993C74.0976 44.1777 74.0839 44.1501 74.0701 44.1245ZM74.135 44.2485C74.1468 44.2701 74.1586 44.2937 74.1685 44.3154C74.1586 44.2937 74.1468 44.2701 74.135 44.2485ZM74.1882 44.3547C74.198 44.3744 74.2078 44.3941 74.2157 44.4098C74.2078 44.3941 74.198 44.3744 74.1882 44.3547ZM74.2354 44.4571C74.2393 44.4669 74.2452 44.4807 74.2492 44.4885C74.2472 44.4787 74.2413 44.4669 74.2354 44.4571ZM74.2649 44.524C74.2688 44.5318 74.2728 44.5417 74.2747 44.5476C74.2728 44.5397 74.2688 44.5299 74.2649 44.524Z" fill="#2E2836"/>
<path d="M109.996 33.4444H109.619V33.8222V35.9432C109.619 36.5591 109.746 37.2064 109.931 37.8518C109.477 37.2005 109.009 36.6181 108.595 36.1833C106.437 33.8438 103.389 32.6062 99.7825 32.6062C95.7332 32.6062 92.0459 34.137 89.3995 36.9172C86.7806 39.6679 85.3403 43.4634 85.3403 47.6072C85.3403 51.7745 86.7806 55.6389 89.3955 58.488C92.0656 61.3961 95.7548 62.9977 99.7825 62.9977C103.452 62.9977 106.441 61.7148 108.662 59.1865C109.06 58.73 109.5 58.1535 109.927 57.5278C109.746 58.1771 109.62 58.8284 109.62 59.4403V61.7286V62.1064H109.998H117.812H118.189V61.7286V33.8222V33.4444H117.812H109.996ZM93.9092 47.6072C93.9092 45.6533 94.5625 43.8707 95.7489 42.5898C96.9255 41.3187 98.5567 40.6183 100.341 40.6183C104.377 40.6183 106.886 43.2962 106.886 47.6091C106.86 49.5689 106.175 51.4184 104.961 52.8095C103.735 54.2143 102.094 54.9896 100.341 54.9896C98.5901 54.9896 96.961 54.2163 95.7588 52.8115C94.5664 51.4204 93.9092 49.5728 93.9092 47.6072Z" fill="#2E2836"/>
<path d="M138.742 29.1764H142.76H143.137V28.7987V22.6598V22.282H142.76H135.84C133.534 22.282 131.349 23.1713 129.689 24.7887C127.951 26.4808 126.95 28.8518 126.867 31.4667V31.4726V31.4785V33.4461H121.718H121.34V33.8239V39.7956V40.1733H121.718H126.867V61.5631V61.9409H127.245H135.058H135.436V61.5631V40.1714H142.036H142.413V39.7936V33.8219V33.4442H142.036H135.436V31.4766C135.434 29.4145 137.321 29.1764 138.742 29.1764Z" fill="#2E2836"/>
<path d="M176.927 48.3195C176.921 48.048 176.917 47.7922 176.917 47.6092C176.945 43.7645 175.467 40.1422 172.757 37.4131C169.682 34.3161 165.218 32.6083 160.186 32.6083C155.378 32.6083 151.008 34.1312 147.881 36.8957C144.776 39.6424 143.064 43.4478 143.064 47.6092C143.064 51.9143 144.764 55.7885 147.852 58.5176C151.169 61.4513 155.936 62.9998 161.637 62.9998C165.694 62.9998 169.324 61.8133 172.136 59.5683C174.534 57.6519 175.854 55.3596 176.287 53.8524L176.427 53.3704H175.925H166.939H166.711L166.605 53.5711C166.152 54.4329 164.246 55.7138 160.855 55.7138C156.243 55.7138 153.66 53.0339 153.434 50.3855H176.539H176.872L176.913 50.055C176.954 49.7185 176.941 48.9747 176.927 48.3195ZM166.941 44.7759H153.432C153.54 43.4242 154.221 42.1098 155.34 41.124C156.649 39.971 158.449 39.3355 160.407 39.3355C162.384 39.3355 164.049 39.9081 165.224 40.9942C166.268 41.9563 166.859 43.2589 166.941 44.7759Z" fill="#2E2836"/>
<path d="M158.838 22.2997C156.1 22.5389 153.254 23.7422 152.146 26.4314C151.586 27.7847 151.448 29.3666 151.721 30.8073C151.721 30.8073 153.725 28.4056 160.825 27.6756L161.392 27.6166C170.152 26.8618 168.513 19.117 168.513 19.117C168.513 19.117 166.509 21.5186 159.409 22.2487L158.838 22.2997Z" fill="#2E2836" stroke="#2E2836" stroke-width="0.118117"/>
<path d="M34.2921 65.3077C33.767 67.3125 32.1075 69.4797 23.7699 69.4797C15.4324 69.4797 13.434 71.5608 13.1985 69.494L10.8086 38.1487C14.3043 40.0167 17.913 39.0111 23.7652 39.0111C29.6285 39.0111 34.5069 38.0278 38.0042 36.155L34.2921 65.3077Z" fill="#FEC89A"/>
<path d="M22.0323 17.6885C30.0197 17.6885 34.4765 19.173 35.6491 22.2264L36.397 26.7086C36.3954 26.7611 36.3858 26.8152 36.3763 26.8677H36.6356C38.3986 27.3721 40.3859 28.1629 41.016 30.0532C41.8466 32.5465 39.6604 35.0127 37.5776 36.0835L37.5744 36.0995C36.0103 36.9475 34.1217 37.6238 31.953 38.117C34.2251 37.646 36.2379 36.9953 37.9547 36.1742L33.8018 65.3253C33.2131 67.3302 31.3595 69.4973 22.0307 69.4973C12.7035 69.4973 10.522 67.3906 10.2595 65.3253L6.10982 36.1806C7.83938 37.0064 9.87125 37.6588 12.1657 38.1297C9.97468 37.6349 8.06691 36.9555 6.4901 36.0995L6.48692 36.0835C4.40413 35.0127 2.21792 32.5465 3.04849 30.0532C3.67858 28.1629 5.6659 27.3721 7.42887 26.8677H7.68822C7.67868 26.8152 7.66913 26.7611 7.66754 26.7086L8.41855 22.2073C9.31913 19.3767 14.4028 17.6885 22.0323 17.6885ZM22.0323 14.8245C17.9287 14.8245 14.4855 15.2763 11.7997 16.169C8.48697 17.2684 6.43123 19.0091 5.68977 21.3401L5.62771 21.5358L5.5943 21.7379L5.11378 24.6163C3.43354 25.267 1.20278 26.5368 0.330841 29.151C-0.736807 32.3539 0.910012 35.4901 3.40172 37.4822L7.4241 65.7152C7.62935 67.2824 8.51879 69.4273 11.5738 70.802C13.9127 71.8537 17.3337 72.3661 22.0338 72.3661C26.6959 72.3661 30.0882 71.8426 32.4048 70.7638C34.5783 69.7519 35.9356 68.2387 36.5529 66.1352L36.6118 65.9363L36.6404 65.7327L40.6644 37.4822C43.1561 35.4901 44.8029 32.3539 43.7369 29.151C42.8665 26.5368 40.6357 25.267 38.9539 24.6163L38.4766 21.757L38.4289 21.4706L38.3254 21.2001C37.4185 18.8437 35.393 17.1268 32.3046 16.0974C29.7349 15.2413 26.376 14.8245 22.0323 14.8245Z" fill="#2E2836"/>
<path d="M36.6356 26.8755C38.3986 27.3799 40.3859 28.1707 41.016 30.0609C41.8466 32.5542 39.6604 35.0205 37.5776 36.0913L37.5744 36.1072C33.9514 38.0739 28.5925 39.1113 22.0275 39.1113H22.0354C15.4704 39.1113 10.1115 38.0739 6.48848 36.1072L6.4853 36.0913C4.40251 35.0205 2.2163 32.5542 3.04687 30.0609C3.67696 28.1707 5.66428 27.3799 7.42725 26.8755" fill="white"/>
<path d="M36.6356 26.8755C38.3986 27.3799 40.3859 28.1707 41.016 30.0609C41.8466 32.5542 39.6604 35.0205 37.5776 36.0913L37.5744 36.1072C33.9514 38.0739 28.5925 39.1113 22.0275 39.1113H22.0354C15.4704 39.1113 10.1115 38.0739 6.48848 36.1072L6.4853 36.0913C4.40251 35.0205 2.2163 32.5542 3.04687 30.0609C3.67696 28.1707 5.66428 27.3799 7.42725 26.8755" stroke="#2E2836" stroke-width="1.43202" stroke-miterlimit="10" stroke-linejoin="round"/>
<path d="M36.397 26.7165C36.3525 27.7142 34.8807 28.7914 32.4399 29.606C29.6698 30.5321 25.9736 31.0412 22.0323 31.0412C18.0911 31.0412 14.3949 30.5336 11.6232 29.606C9.18395 28.7914 7.71216 27.7158 7.66602 26.7165L8.41703 22.2152C9.31761 19.3846 14.4013 17.6964 22.0307 17.6964C30.0182 17.6964 34.475 19.1809 35.6476 22.2343L36.397 26.7165Z" fill="white" stroke="#2E2836" stroke-width="1.49244" stroke-miterlimit="10" stroke-linejoin="round"/>
<path d="M11.4365 22.7794C12.7689 24.5059 16.4089 25.5826 22.0576 25.5826C27.5342 25.5826 31.0514 24.5474 32.6682 22.7975" stroke="#2E2836" stroke-width="1.49244" stroke-miterlimit="10"/>
<path d="M33.8016 65.333C33.2129 67.3378 31.3593 69.5049 22.0305 69.5049C12.7033 69.5049 10.5218 67.3983 10.2593 65.333L6.10962 36.1867C10.0206 38.0546 15.4798 39.0364 22.0273 39.0364C28.5859 39.0364 34.0435 38.0531 37.9561 36.1803L33.8016 65.333Z" stroke="#2E2836" stroke-width="1.43202" stroke-miterlimit="10"/>
<path d="M17.6963 21.0136C16.0272 21.0136 15.1282 20.366 15.1282 20.1019V13.7612C15.1282 13.4971 16.0288 12.8495 17.6963 12.8495C19.3638 12.8495 20.2643 13.4971 20.2643 13.7612V20.1003C20.2659 20.366 19.3654 21.0136 17.6963 21.0136Z" fill="#2E2836"/>
<path d="M17.6962 13.5657C18.6827 13.5657 19.3144 13.8282 19.5483 13.9873V19.8761C19.3144 20.0352 18.6827 20.2978 17.6962 20.2978C16.7097 20.2978 16.0764 20.0352 15.8441 19.8761V13.9873C16.078 13.8282 16.7097 13.5657 17.6962 13.5657ZM17.6962 12.1337C15.8823 12.1337 14.4121 12.8624 14.4121 13.7614V20.1005C14.4121 20.9994 15.8823 21.7282 17.6962 21.7282C19.5101 21.7282 20.9803 20.9994 20.9803 20.1005V13.7614C20.9819 12.8624 19.5101 12.1337 17.6962 12.1337Z" fill="#2E2836"/>
<path d="M16.6016 54.7457L17.1282 54.6678C18.9008 54.4084 20.6351 53.9311 22.2899 53.2469L23.1777 52.8809C24.387 52.5388 25.6058 53.3853 25.6058 54.5691V69.3953C25.6058 70.369 24.7625 70.7223 23.7235 70.7223H17.1457C16.1067 70.7223 15.2634 70.369 15.2634 69.3953V56.4339C15.265 55.6574 15.8076 54.9717 16.6016 54.7457Z" fill="#2E2836"/>
<path d="M23.644 63.7345L23.6186 68.3679C22.1661 68.4678 19.7961 68.373 18.9141 68.1716L23.644 63.7345Z" fill="white"/>
<path d="M26.1646 49.4633C24.3635 49.4633 22.9028 48.0027 22.9028 46.2015C22.9028 44.4004 24.3635 42.9397 26.1646 42.9397C27.9658 42.9397 29.4265 44.4004 29.4265 46.2015C29.4265 48.0043 27.9658 49.4633 26.1646 49.4633Z" fill="#2E2836"/>
<path d="M35.5687 62.8577L35.304 64.8366C34.7122 66.9189 32.8112 69.1807 23.1456 69.2651C13.8377 69.3463 11.3818 67.3434 10.9533 65.2848C9.82195 66.0052 9.19093 66.8102 9.19831 67.6559C9.22407 70.6081 14.5098 72.954 26.6309 72.8482C36.2322 72.7645 42.1848 70.3189 42.1591 67.3682C42.1406 65.433 40.5885 63.7502 35.5687 62.8577Z" fill="#2E2836"/>
<path d="M22.6807 5.09861C20.7592 5.26655 18.7614 6.1112 17.9834 7.99895C17.5903 8.94891 17.4933 10.0594 17.6856 11.0706C17.6856 11.0706 19.0923 9.38477 24.0762 8.87229L24.474 8.83088C30.6229 8.30108 29.4725 2.86451 29.4725 2.86451C29.4725 2.86451 28.0658 4.55037 23.0819 5.06285L22.6807 5.09861Z" fill="#2E2836" stroke="#2E2836" stroke-width="0.0829134"/>
<path d="M34.2921 65.3077C33.767 67.3125 32.1075 69.4797 23.7699 69.4797C15.4324 69.4797 13.434 71.5608 13.1985 69.494L10.8086 38.1487C14.3043 40.0167 17.913 39.0111 23.7652 39.0111C29.6285 39.0111 34.5069 38.0278 38.0042 36.155L34.2921 65.3077Z" fill="#FEC89A"/>
<path d="M22.0323 17.6885C30.0197 17.6885 34.4765 19.173 35.6492 22.2264L36.397 26.7086C36.3954 26.7611 36.3858 26.8152 36.3763 26.8677H36.6357C38.3986 27.3721 40.3859 28.1629 41.016 30.0532C41.8466 32.5465 39.6604 35.0127 37.5776 36.0835L37.5744 36.0995C36.0103 36.9475 34.1217 37.6238 31.953 38.117C34.2251 37.646 36.2379 36.9953 37.9547 36.1742L33.8018 65.3253C33.2131 67.3302 31.3595 69.4973 22.0307 69.4973C12.7035 69.4973 10.522 67.3906 10.2595 65.3253L6.10982 36.1806C7.83938 37.0064 9.87125 37.6588 12.1657 38.1297C9.97468 37.6349 8.06691 36.9555 6.4901 36.0995L6.48692 36.0835C4.40413 35.0127 2.21792 32.5465 3.04849 30.0532C3.67858 28.1629 5.6659 27.3721 7.42887 26.8677H7.68823C7.67868 26.8152 7.66913 26.7611 7.66754 26.7086L8.41855 22.2073C9.31913 19.3767 14.4028 17.6885 22.0323 17.6885ZM22.0323 14.8245C17.9287 14.8245 14.4855 15.2763 11.7997 16.169C8.48697 17.2684 6.43123 19.0091 5.68977 21.3401L5.62771 21.5358L5.5943 21.7379L5.11378 24.6163C3.43354 25.267 1.20278 26.5368 0.330841 29.151C-0.736807 32.3539 0.910012 35.4901 3.40172 37.4821L7.4241 65.7152C7.62935 67.2824 8.51879 69.4273 11.5738 70.802C13.9127 71.8537 17.3337 72.3661 22.0339 72.3661C26.6959 72.3661 30.0882 71.8426 32.4048 70.7638C34.5783 69.7519 35.9356 68.2387 36.5529 66.1352L36.6118 65.9363L36.6404 65.7327L40.6644 37.4821C43.1561 35.4901 44.8029 32.3539 43.7369 29.151C42.8665 26.5368 40.6358 25.267 38.9539 24.6163L38.4766 21.757L38.4289 21.4706L38.3254 21.2001C37.4185 18.8437 35.393 17.1268 32.3046 16.0974C29.7349 15.2413 26.376 14.8245 22.0323 14.8245Z" fill="#2E2836"/>
<path d="M36.397 26.7164C36.3525 27.714 34.8807 28.7912 32.4399 29.6059C29.6698 30.5319 25.9736 31.0411 22.0323 31.0411C18.0911 31.0411 14.3949 30.5335 11.6232 29.6059C9.18395 28.7912 7.71216 27.7156 7.66602 26.7164L8.41703 22.2151C9.31761 19.3845 14.4013 17.6963 22.0307 17.6963C30.0182 17.6963 34.475 19.1808 35.6476 22.2342L36.397 26.7164Z" fill="white" stroke="#2E2836" stroke-width="1.49244" stroke-miterlimit="10" stroke-linejoin="round"/>
<path d="M11.4365 22.7794C12.7689 24.5059 16.4089 25.5826 22.0576 25.5826C27.5342 25.5826 31.0514 24.5474 32.6682 22.7975" stroke="#2E2836" stroke-width="1.49244" stroke-miterlimit="10"/>
<path d="M33.8016 65.333C33.2129 67.3378 31.3593 69.5049 22.0305 69.5049C12.7033 69.5049 10.5218 67.3983 10.2593 65.333L6.10962 36.1867C10.0206 38.0546 15.4798 39.0364 22.0273 39.0364C28.5859 39.0364 34.0435 38.0531 37.9561 36.1803L33.8016 65.333Z" stroke="#2E2836" stroke-width="1.43202" stroke-miterlimit="10"/>
<path d="M17.6963 21.0136C16.0272 21.0136 15.1282 20.366 15.1282 20.1019V13.7612C15.1282 13.4971 16.0288 12.8495 17.6963 12.8495C19.3638 12.8495 20.2643 13.4971 20.2643 13.7612V20.1003C20.2659 20.366 19.3654 21.0136 17.6963 21.0136Z" fill="#2E2836"/>
<path d="M17.6962 13.5656C18.6827 13.5656 19.3144 13.8281 19.5483 13.9872V19.876C19.3144 20.0351 18.6827 20.2976 17.6962 20.2976C16.7097 20.2976 16.0764 20.0351 15.8441 19.876V13.9872C16.078 13.8281 16.7097 13.5656 17.6962 13.5656ZM17.6962 12.1335C15.8823 12.1335 14.4121 12.8623 14.4121 13.7613V20.1003C14.4121 20.9993 15.8823 21.7281 17.6962 21.7281C19.5101 21.7281 20.9803 20.9993 20.9803 20.1003V13.7613C20.9819 12.8623 19.5101 12.1335 17.6962 12.1335Z" fill="#2E2836"/>
<path d="M16.6016 54.7456L17.1282 54.6676C18.9008 54.4083 20.6351 53.9309 22.2899 53.2468L23.1777 52.8808C24.387 52.5387 25.6058 53.3852 25.6058 54.569V69.3951C25.6058 70.3689 24.7625 70.7221 23.7235 70.7221H17.1457C16.1067 70.7221 15.2634 70.3689 15.2634 69.3951V56.4338C15.265 55.6573 15.8076 54.9715 16.6016 54.7456Z" fill="#2E2836"/>
<path d="M23.644 63L23.6186 68.6334C22.1661 68.7333 19.1875 68.6334 17.9141 68.4371L23.644 63Z" fill="white"/>
<path d="M26.1646 49.4632C24.3635 49.4632 22.9028 48.0026 22.9028 46.2014C22.9028 44.4002 24.3635 42.9396 26.1646 42.9396C27.9658 42.9396 29.4265 44.4002 29.4265 46.2014C29.4265 48.0041 27.9658 49.4632 26.1646 49.4632Z" fill="#2E2836"/>
</svg>
