<svg xmlns="http://www.w3.org/2000/svg" xmlns:xlink="http://www.w3.org/1999/xlink" width="36" height="36" preserveAspectRatio="xMidYMid meet" viewBox="0 0 36 36" style="-ms-transform: rotate(360deg); -webkit-transform: rotate(360deg); transform: rotate(360deg);"><path class="clr-i-outline clr-i-outline-path-1" d="M9.8 18.8h16.4v3.08h1.6V17.2h-9V14h-1.6v3.2h-9v4.68h1.6V18.8z" fill="#626262"/><path d="M14 23H4a2 2 0 0 0-2 2v6a2 2 0 0 0 2 2h10a2 2 0 0 0 2-2v-6a2 2 0 0 0-2-2zM4 31v-6h10v6z" class="clr-i-outline clr-i-outline-path-2" fill="#626262"/><path d="M32 23H22a2 2 0 0 0-2 2v6a2 2 0 0 0 2 2h10a2 2 0 0 0 2-2v-6a2 2 0 0 0-2-2zm-10 8v-6h10v6z" class="clr-i-outline clr-i-outline-path-3" fill="#626262"/><path d="M13 13h10a2 2 0 0 0 2-2V5a2 2 0 0 0-2-2H13a2 2 0 0 0-2 2v6a2 2 0 0 0 2 2zm0-8h10v6H13z" class="clr-i-outline clr-i-outline-path-4" fill="#626262"/><rect x="0" y="0" width="36" height="36" fill="rgba(0, 0, 0, 0)" /></svg>