<svg width="2195" height="758" viewBox="0 0 2195 758" fill="none" xmlns="http://www.w3.org/2000/svg">
<g filter="url(#filter0_d)">
<path d="M302.393 276.601C302.393 285.731 300.781 295.041 297.559 304.53C294.336 313.84 289.681 322.344 283.594 330.043C277.686 337.562 270.435 343.739 261.841 348.573C253.247 353.407 243.49 355.824 232.568 355.824C222.9 355.824 214.575 354.213 207.593 350.99C200.789 347.589 195.15 343.113 190.674 337.562C186.377 332.012 183.154 325.746 181.006 318.764C178.857 311.781 177.783 304.53 177.783 297.011C177.783 289.491 178.678 282.24 180.469 275.258C182.438 268.096 185.392 261.741 189.331 256.19C190.405 259.95 191.838 262.904 193.628 265.053C195.418 267.022 197.298 268.454 199.268 269.35C201.416 270.424 203.743 271.05 206.25 271.229C211.979 271.229 216.007 269.708 218.335 266.664C220.841 263.62 222.095 260.129 222.095 256.19C222.095 254.4 221.737 252.61 221.021 250.819C220.304 248.85 219.141 247.06 217.529 245.448C216.097 243.837 214.128 242.494 211.621 241.42C209.115 240.346 206.071 239.809 202.49 239.809C200.521 239.809 197.656 240.077 193.896 240.614C190.316 241.151 186.287 242.584 181.812 244.911C177.336 247.06 172.77 250.372 168.115 254.848C163.46 259.324 159.163 265.411 155.225 273.109C151.465 280.808 148.332 290.386 145.825 301.845C143.498 313.303 142.334 327.268 142.334 343.739C142.334 355.019 143.408 364.866 145.557 373.28C147.884 381.516 150.838 388.588 154.419 394.496C158 400.404 162.118 405.238 166.772 408.998C171.427 412.758 176.172 415.712 181.006 417.86C185.84 420.009 190.495 421.531 194.971 422.426C199.626 423.142 203.743 423.5 207.324 423.5C211.979 423.5 217.798 422.694 224.78 421.083C231.942 419.293 239.014 416.16 245.996 411.684C252.979 407.208 259.245 401.031 264.795 393.153C270.524 385.276 274.463 375.071 276.611 362.538C282.878 371.311 287.622 381.785 290.845 393.959C294.246 406.133 295.947 418.935 295.947 432.362C295.947 450.624 292.635 468.349 286.011 485.536C279.565 502.545 270.256 517.673 258.081 530.922C246.086 544.171 231.494 554.734 214.307 562.611C197.119 570.668 177.962 574.696 156.836 574.696C141.26 574.696 126.847 572.19 113.599 567.177C100.35 562.343 88.265 555.539 77.3438 546.767C66.4225 537.994 56.8441 527.699 48.6084 515.883C40.3727 503.887 33.3903 490.907 27.6611 476.942C21.932 462.978 17.6351 448.297 14.7705 432.899C11.9059 417.323 10.4736 401.568 10.4736 385.634C10.4736 368.088 12.3535 350.453 16.1133 332.729C19.873 314.825 25.2441 297.637 32.2266 281.166C39.388 264.695 47.9818 249.298 58.0078 234.975C68.2129 220.473 79.7607 207.94 92.6514 197.377C105.542 186.635 119.686 178.22 135.083 172.133C150.48 165.867 166.862 162.733 184.229 162.733C199.984 162.733 213.859 164.613 225.854 168.373C237.85 171.954 248.145 176.877 256.738 183.144C265.511 189.231 272.852 196.213 278.76 204.091C284.668 211.968 289.323 220.115 292.725 228.529C296.305 236.944 298.812 245.359 300.244 253.773C301.676 262.009 302.393 269.618 302.393 276.601ZM578.198 404.164C578.198 414.548 577.393 426.007 575.781 438.539C574.17 450.893 571.484 463.425 567.725 476.137C563.965 488.669 558.862 500.933 552.417 512.929C545.972 524.745 537.915 535.219 528.247 544.35C518.758 553.48 507.389 560.821 494.141 566.371C480.892 571.921 465.495 574.696 447.949 574.696C430.404 574.696 415.007 572.1 401.758 566.908C388.688 561.716 377.409 554.823 367.92 546.229C358.61 537.457 350.911 527.431 344.824 516.151C338.737 504.693 333.903 492.698 330.322 480.165C326.742 467.632 324.235 455.01 322.803 442.299C321.549 429.408 320.923 417.234 320.923 405.775C320.923 385.544 323.608 365.761 328.979 346.425C334.351 326.91 342.497 309.543 353.418 294.325C364.518 279.107 378.304 266.843 394.775 257.533C411.426 248.223 430.941 243.568 453.32 243.568C468.359 243.568 481.877 245.896 493.872 250.551C505.868 255.027 516.52 261.203 525.83 269.081C535.14 276.959 543.018 286.179 549.463 296.742C556.087 307.305 561.548 318.495 565.845 330.312C570.142 342.128 573.275 354.392 575.244 367.104C577.214 379.815 578.198 392.169 578.198 404.164ZM484.741 413.026C484.741 408.909 484.562 403.806 484.204 397.719C484.025 391.452 483.488 384.918 482.593 378.114C481.698 371.311 480.444 364.507 478.833 357.704C477.401 350.901 475.431 344.813 472.925 339.442C470.418 334.071 467.285 329.685 463.525 326.283C459.945 322.882 455.648 321.181 450.635 321.181C445.801 321.181 441.593 322.792 438.013 326.015C434.432 329.237 431.299 333.445 428.613 338.637C426.107 343.829 423.958 349.737 422.168 356.361C420.557 362.807 419.214 369.341 418.14 375.966C417.244 382.411 416.528 388.677 415.991 394.765C415.633 400.673 415.454 405.686 415.454 409.804C415.454 415.712 415.902 422.873 416.797 431.288C417.692 439.703 419.393 447.759 421.899 455.458C424.406 463.157 427.808 469.781 432.104 475.331C436.58 480.702 442.399 483.388 449.561 483.388C456.364 483.388 462.004 480.881 466.479 475.868C471.134 470.855 474.805 464.768 477.49 457.606C480.176 450.266 482.056 442.567 483.13 434.511C484.204 426.454 484.741 419.293 484.741 413.026ZM1000.1 566.371C994.548 565.476 988.639 564.849 982.373 564.491C976.286 564.312 969.93 564.223 963.306 564.223C955.249 564.223 947.192 564.402 939.136 564.76C931.079 565.297 923.201 565.924 915.503 566.64C907.804 567.356 900.464 568.161 893.481 569.057C886.499 569.952 880.233 570.757 874.683 571.474C877.01 562.343 879.069 551.153 880.859 537.904C882.829 524.477 884.44 509.796 885.693 493.861C886.947 477.927 887.842 461.187 888.379 443.642C889.095 425.917 889.453 408.013 889.453 389.931C889.453 387.245 889.364 383.664 889.185 379.188C889.185 374.713 889.006 369.879 888.647 364.687C888.289 359.494 887.663 354.302 886.768 349.11C886.051 343.739 884.888 338.905 883.276 334.608C881.844 330.312 879.964 326.82 877.637 324.135C875.488 321.449 872.713 320.106 869.312 320.106C865.731 320.106 862.24 322.344 858.838 326.82C855.436 331.296 852.124 337.294 848.901 344.813C849.438 354.84 849.886 366.745 850.244 380.531C850.602 394.138 850.871 408.371 851.05 423.231C851.229 438.091 851.318 452.772 851.318 467.274C851.497 481.776 851.676 494.757 851.855 506.215C852.035 517.673 852.214 526.983 852.393 534.145C852.572 541.127 852.84 544.618 853.198 544.618C845.142 543.365 837.712 542.38 830.908 541.664C824.284 540.948 817.57 540.59 810.767 540.59C801.815 540.59 792.147 541.306 781.763 542.738C771.379 544.171 758.936 546.409 744.434 549.452C746.761 532.444 748.91 514.898 750.879 496.815C752.49 481.239 754.012 464.052 755.444 445.253C756.877 426.454 757.593 408.013 757.593 389.931C757.593 387.245 757.503 383.664 757.324 379.188C757.324 374.713 757.145 369.879 756.787 364.687C756.429 359.494 755.802 354.302 754.907 349.11C754.191 343.739 753.027 338.905 751.416 334.608C749.984 330.312 748.104 326.82 745.776 324.135C743.449 321.449 740.584 320.106 737.183 320.106C731.453 320.106 726.709 321.807 722.949 325.209C719.368 328.432 716.504 332.818 714.355 338.368C712.207 343.918 710.685 350.364 709.79 357.704C709.074 364.866 708.716 372.475 708.716 380.531C708.716 395.749 709.074 411.146 709.79 426.723C710.506 442.299 711.67 457.785 713.281 473.183C714.893 488.401 716.951 503.35 719.458 518.031C721.965 532.712 725.098 546.677 728.857 559.926C725.814 559.747 722.233 559.478 718.115 559.12C714.535 558.941 710.327 558.762 705.493 558.583C700.659 558.404 695.109 558.314 688.843 558.314C677.205 558.314 663.778 558.852 648.56 559.926C633.341 560.821 616.87 562.611 599.146 565.297C601.294 555.271 603.174 543.007 604.785 528.505C606.396 514.003 607.739 498.248 608.813 481.239C609.888 464.231 610.693 446.506 611.23 428.065C611.947 409.446 612.305 391.094 612.305 373.012C612.305 359.584 612.126 346.425 611.768 333.534C611.41 320.644 610.872 308.469 610.156 297.011C609.619 285.552 608.813 274.989 607.739 265.321C606.665 255.653 605.412 247.328 603.979 240.346C618.481 242.852 631.909 244.643 644.263 245.717C656.616 246.612 667.806 247.06 677.832 247.06C684.277 247.06 690.007 246.97 695.02 246.791C700.212 246.433 704.598 246.075 708.179 245.717C712.476 245.18 716.235 244.643 719.458 244.105C718.384 248.76 717.399 253.773 716.504 259.145C715.788 264.337 714.982 269.976 714.087 276.063C724.113 263.173 734.855 253.505 746.313 247.06C757.772 240.435 769.051 237.123 780.151 237.123C795.549 237.123 808.081 240.972 817.749 248.671C827.596 256.19 835.026 268.275 840.039 284.926C850.602 268.812 862.15 256.817 874.683 248.939C887.394 241.062 899.837 237.123 912.012 237.123C924.902 237.123 936.361 239.809 946.387 245.18C956.592 250.372 965.096 258.607 971.899 269.887C978.703 281.166 983.895 295.578 987.476 313.124C991.056 330.67 992.847 351.706 992.847 376.234C992.847 393.064 992.847 410.609 992.847 428.871C993.026 447.133 993.294 464.857 993.652 482.045C994.189 499.053 994.906 514.988 995.801 529.848C996.875 544.529 998.307 556.703 1000.1 566.371ZM1020.24 252.968C1024.36 253.326 1029.01 253.684 1034.2 254.042C1038.68 254.4 1043.87 254.669 1049.78 254.848C1055.87 255.027 1062.49 255.116 1069.65 255.116C1079.68 255.116 1090.42 254.848 1101.88 254.311C1113.52 253.594 1124.98 252.252 1136.25 250.282C1134.11 254.4 1132.23 259.95 1130.62 266.933C1129.18 273.736 1127.93 281.703 1126.86 290.834C1134.2 274.721 1143.95 262.188 1156.13 253.236C1168.48 244.285 1184.06 239.809 1202.86 239.809C1206.97 239.809 1212.17 240.077 1218.43 240.614C1224.88 241.151 1231.59 242.942 1238.57 245.985C1245.74 249.029 1252.81 253.773 1259.79 260.219C1266.95 266.485 1273.31 275.437 1278.86 287.074C1284.59 298.712 1289.15 313.393 1292.55 331.117C1296.13 348.663 1297.92 370.326 1297.92 396.107C1297.92 417.592 1296.31 436.838 1293.09 453.847C1290.05 470.676 1285.84 485.536 1280.47 498.427C1275.28 511.317 1269.1 522.328 1261.94 531.459C1254.96 540.411 1247.53 547.751 1239.65 553.48C1231.95 559.21 1223.98 563.327 1215.75 565.834C1207.69 568.52 1199.9 569.862 1192.38 569.862C1183.61 569.862 1175.46 568.072 1167.94 564.491C1160.6 560.91 1154.07 555.987 1148.34 549.721C1142.61 543.275 1137.69 535.666 1133.57 526.894C1129.45 517.942 1126.32 508.184 1124.17 497.621C1124.35 505.857 1124.71 515.435 1125.24 526.356C1125.78 537.278 1126.41 548.646 1127.12 560.463C1127.84 572.1 1128.65 583.827 1129.54 595.644C1130.44 607.46 1131.42 618.381 1132.5 628.407C1133.57 638.612 1134.73 647.475 1135.99 654.994C1137.42 662.514 1138.94 667.885 1140.55 671.107C1126.23 668.601 1112.89 666.9 1100.54 666.005C1088.18 665.289 1076.99 664.931 1066.97 664.931C1060.52 664.931 1054.7 665.02 1049.51 665.199C1044.32 665.378 1039.93 665.647 1036.35 666.005C1032.06 666.363 1028.3 666.721 1025.07 667.079C1026.86 658.127 1028.56 646.4 1030.18 631.898C1031.79 617.576 1033.13 601.373 1034.2 583.29C1035.46 565.386 1036.44 546.14 1037.16 525.551C1037.87 504.783 1038.23 483.567 1038.23 461.903C1038.23 442.03 1037.87 422.247 1037.16 402.553C1036.62 382.859 1035.64 363.97 1034.2 345.888C1032.77 327.805 1030.89 310.886 1028.56 295.131C1026.24 279.197 1023.46 265.142 1020.24 252.968ZM1130.62 385.097V428.334C1130.62 433.168 1130.88 438.091 1131.42 443.104C1131.96 448.118 1133.12 452.683 1134.91 456.801C1136.88 460.919 1139.66 464.32 1143.24 467.006C1146.82 469.512 1151.65 470.766 1157.74 470.766C1162.04 470.766 1165.71 469.065 1168.75 465.663C1171.79 462.261 1174.3 457.875 1176.27 452.504C1178.24 447.133 1179.85 441.135 1181.1 434.511C1182.36 427.886 1183.25 421.352 1183.79 414.906C1184.33 408.282 1184.68 402.195 1184.86 396.645C1185.04 390.915 1185.13 386.439 1185.13 383.217C1185.13 378.383 1184.86 372.475 1184.33 365.492C1183.97 358.51 1182.98 351.706 1181.37 345.082C1179.76 338.458 1177.25 332.818 1173.85 328.163C1170.63 323.508 1166.15 321.181 1160.42 321.181C1153.98 321.181 1148.79 323.508 1144.85 328.163C1140.91 332.639 1137.87 338.189 1135.72 344.813C1133.75 351.259 1132.41 358.241 1131.69 365.761C1130.97 373.101 1130.62 379.547 1130.62 385.097ZM1598.17 564.76C1594.77 564.402 1590.83 564.044 1586.35 563.686C1582.59 563.327 1578.03 563.059 1572.66 562.88C1567.46 562.701 1561.74 562.611 1555.47 562.611C1546.52 562.611 1536.67 562.969 1525.93 563.686C1515.36 564.402 1504.44 565.744 1493.16 567.714L1494.24 492.25C1487.43 518.926 1477.41 539.516 1464.16 554.018C1451.09 568.52 1435.69 575.771 1417.97 575.771C1412.42 575.771 1406.15 575.054 1399.17 573.622C1392.19 572.19 1385.03 569.415 1377.69 565.297C1370.52 561.358 1363.45 555.808 1356.47 548.646C1349.67 541.485 1343.58 532.265 1338.21 520.985C1332.84 509.527 1328.54 495.741 1325.32 479.628C1322.09 463.336 1320.48 444.089 1320.48 421.889C1320.48 391.811 1323.53 366.119 1329.61 344.813C1335.7 323.329 1343.49 305.784 1352.98 292.177C1362.47 278.57 1372.94 268.633 1384.4 262.367C1395.86 256.101 1407.05 252.968 1417.97 252.968C1427.28 252.968 1435.69 254.311 1443.21 256.996C1450.91 259.503 1457.71 262.815 1463.62 266.933C1469.53 270.871 1474.63 275.347 1478.93 280.36C1483.23 285.373 1486.72 290.386 1489.4 295.399C1488.87 289.312 1488.06 282.867 1486.99 276.063C1485.91 269.081 1484.66 261.92 1483.23 254.579C1494.86 256.907 1506.68 258.428 1518.68 259.145C1530.67 259.861 1541.77 260.219 1551.98 260.219C1564.15 260.219 1574 259.95 1581.52 259.413C1585.82 259.234 1589.75 258.965 1593.33 258.607C1591.37 267.559 1589.58 277.585 1587.96 288.686C1586.35 299.786 1584.92 311.692 1583.67 324.403C1582.59 336.936 1581.7 350.185 1580.98 364.149C1580.44 377.935 1580.18 392.079 1580.18 406.581C1580.18 433.616 1581.52 460.74 1584.2 487.953C1586.89 515.167 1591.54 540.769 1598.17 564.76ZM1487.79 410.878V367.372C1487.79 362.538 1487.52 357.615 1486.99 352.602C1486.45 347.589 1485.2 343.023 1483.23 338.905C1481.44 334.787 1478.75 331.475 1475.17 328.969C1471.59 326.283 1466.76 324.94 1460.67 324.94C1454.22 324.94 1448.85 327.178 1444.56 331.654C1440.44 336.13 1437.04 342.307 1434.35 350.185C1431.84 357.883 1430.05 367.104 1428.98 377.846C1428.08 388.409 1427.64 399.957 1427.64 412.489C1427.64 419.651 1428.08 426.902 1428.98 434.242C1430.05 441.583 1431.75 448.297 1434.08 454.384C1436.41 460.292 1439.54 465.126 1443.48 468.886C1447.42 472.646 1452.25 474.525 1457.98 474.525C1464.43 474.525 1469.62 472.287 1473.56 467.812C1477.5 463.336 1480.45 457.785 1482.42 451.161C1484.57 444.537 1486 437.644 1486.72 430.482C1487.43 423.142 1487.79 416.607 1487.79 410.878ZM1900.02 566.371C1894.47 565.476 1888.39 564.849 1881.76 564.491C1875.14 564.312 1868.25 564.223 1861.08 564.223C1852.49 564.223 1843.72 564.402 1834.77 564.76C1825.99 565.297 1817.4 565.924 1808.98 566.64C1800.57 567.356 1792.6 568.161 1785.08 569.057C1777.56 569.952 1771.03 570.757 1765.48 571.474C1773.18 545.513 1779.09 517.763 1783.2 488.222C1787.5 458.681 1789.65 425.917 1789.65 389.931C1789.65 387.245 1789.56 383.664 1789.38 379.188C1789.38 374.713 1789.2 369.879 1788.84 364.687C1788.48 359.494 1787.86 354.302 1786.96 349.11C1786.25 343.739 1785.08 338.905 1783.47 334.608C1782.04 330.312 1780.16 326.82 1777.83 324.135C1775.5 321.449 1772.64 320.106 1769.24 320.106C1764.23 320.106 1759.3 321.897 1754.47 325.478C1749.81 329.058 1745.61 333.803 1741.85 339.711C1738.26 345.619 1735.31 352.423 1732.98 360.121C1730.83 367.82 1729.76 375.787 1729.76 384.022C1729.76 398.882 1730.12 414.011 1730.83 429.408C1731.55 444.626 1732.71 459.755 1734.33 474.794C1735.94 489.833 1738 504.604 1740.5 519.105C1743.01 533.428 1746.14 547.035 1749.9 559.926C1746.86 559.747 1743.28 559.478 1739.16 559.12C1735.58 558.941 1731.37 558.762 1726.54 558.583C1721.7 558.404 1716.15 558.314 1709.89 558.314C1698.25 558.314 1684.82 558.852 1669.6 559.926C1654.39 560.821 1637.92 562.611 1620.19 565.297C1622.34 555.271 1624.22 543.007 1625.83 528.505C1627.44 514.003 1628.78 498.248 1629.86 481.239C1630.93 464.231 1631.74 446.506 1632.28 428.065C1632.99 409.446 1633.35 391.094 1633.35 373.012C1633.35 359.584 1633.17 346.425 1632.81 333.534C1632.45 320.644 1631.92 308.469 1631.2 297.011C1630.66 285.552 1629.86 274.989 1628.78 265.321C1627.71 255.653 1626.46 247.328 1625.02 240.346C1639.53 242.852 1652.95 244.643 1665.31 245.717C1677.66 246.612 1688.85 247.06 1698.88 247.06C1705.32 247.06 1711.05 246.97 1716.06 246.791C1721.26 246.433 1725.64 246.075 1729.22 245.717C1733.52 245.18 1737.28 244.643 1740.5 244.105C1739.43 249.656 1738.35 255.564 1737.28 261.83C1736.39 268.096 1735.49 274.9 1734.59 282.24C1740.5 274.721 1746.77 268.186 1753.39 262.636C1760.02 256.907 1766.64 252.162 1773.27 248.402C1780.07 244.643 1786.78 241.868 1793.41 240.077C1800.03 238.108 1806.3 237.123 1812.21 237.123C1825.1 237.123 1836.2 239.809 1845.51 245.18C1855 250.372 1862.78 258.607 1868.87 269.887C1875.14 281.166 1879.79 295.578 1882.84 313.124C1885.88 330.67 1887.4 351.706 1887.4 376.234C1887.4 393.064 1887.4 410.162 1887.4 427.528C1887.58 444.895 1888.03 461.903 1888.75 478.554C1889.46 495.204 1890.71 511.049 1892.5 526.088C1894.3 540.948 1896.8 554.376 1900.02 566.371ZM2184.42 252.431C2182.45 259.95 2180.75 268.992 2179.32 279.555C2178.07 290.118 2176.9 301.487 2175.83 313.661C2174.76 325.836 2173.86 338.547 2173.14 351.796C2172.61 365.045 2172.07 377.935 2171.53 390.468C2170.46 420.009 2169.83 451.161 2169.65 483.925C2169.65 502.187 2168.49 520.18 2166.16 537.904C2164.01 555.629 2160.43 572.369 2155.42 588.124C2150.59 604.058 2144.23 618.739 2136.35 632.167C2128.65 645.774 2119.17 657.411 2107.89 667.079C2096.79 676.926 2083.81 684.625 2068.95 690.175C2054.26 695.725 2037.61 698.5 2018.99 698.5C2001.63 698.5 1986.59 696.71 1973.88 693.129C1961.17 689.548 1950.6 684.446 1942.19 677.821C1933.95 671.376 1927.78 663.588 1923.66 654.457C1919.72 645.326 1917.75 635.3 1917.75 624.379C1917.75 613.458 1919.63 603.521 1923.39 594.569C1927.15 585.797 1932.07 578.367 1938.16 572.279C1944.25 566.192 1951.14 561.537 1958.84 558.314C1966.54 554.913 1974.32 553.212 1982.2 553.212C1992.23 553.212 2001.72 556.076 2010.67 561.806C2019.62 567.535 2026.42 576.576 2031.08 588.93C2030 588.035 2028.75 587.408 2027.32 587.05C2026.07 586.871 2024.72 586.781 2023.29 586.781C2021.32 586.781 2019.26 587.229 2017.11 588.124C2015.14 589.019 2013.35 590.272 2011.74 591.884C2010.13 593.495 2008.79 595.285 2007.71 597.255C2006.82 599.403 2006.37 601.641 2006.37 603.969C2006.37 606.654 2006.91 608.892 2007.98 610.683C2009.06 612.652 2010.31 614.174 2011.74 615.248C2013.35 616.322 2015.06 617.038 2016.85 617.396C2018.82 617.934 2020.61 618.202 2022.22 618.202C2024.72 618.202 2027.86 617.665 2031.62 616.591C2035.38 615.517 2039.23 613.279 2043.16 609.877C2047.28 606.475 2051.31 601.731 2055.25 595.644C2059.37 589.556 2062.95 581.41 2065.99 571.205C2069.21 561.179 2071.72 548.915 2073.51 534.413C2075.48 519.911 2076.38 502.545 2076.2 482.313C2071.54 494.846 2066.62 505.051 2061.43 512.929C2056.41 520.627 2051.04 526.625 2045.31 530.922C2039.76 535.219 2033.85 538.083 2027.59 539.516C2021.5 540.948 2014.97 541.664 2007.98 541.664C1999.21 541.664 1989.99 540.142 1980.32 537.099C1970.83 533.876 1962.06 528.326 1954 520.448C1946.13 512.392 1939.59 501.47 1934.4 487.685C1929.21 473.899 1926.61 456.353 1926.61 435.048C1926.61 432.183 1926.61 430.214 1926.61 429.14C1926.79 427.886 1926.88 426.991 1926.88 426.454C1926.88 425.738 1926.97 424.932 1927.15 424.037C1927.33 423.142 1927.42 421.441 1927.42 418.935C1927.42 416.249 1927.42 412.489 1927.42 407.655C1927.6 402.821 1927.69 396.018 1927.69 387.245C1927.69 377.04 1927.51 365.492 1927.15 352.602C1926.79 339.711 1925.98 327.089 1924.73 314.735C1923.66 302.382 1922.05 291.192 1919.9 281.166C1917.75 270.961 1914.97 263.441 1911.57 258.607C1926.07 261.114 1939.68 262.815 1952.39 263.71C1965.28 264.605 1977.01 265.053 1987.57 265.053C1994.56 265.053 2000.82 264.963 2006.37 264.784C2012.1 264.426 2017.02 264.068 2021.14 263.71C2025.8 263.352 2030 262.904 2033.76 262.367C2032.33 265.411 2030.72 271.229 2028.93 279.823C2027.32 288.417 2025.71 298.712 2024.1 310.707C2022.49 322.702 2021.14 335.862 2020.07 350.185C2018.99 364.328 2018.46 378.651 2018.46 393.153C2018.46 404.075 2019.26 413.384 2020.87 421.083C2022.49 428.782 2024.63 435.137 2027.32 440.15C2030.18 444.984 2033.41 448.565 2036.99 450.893C2040.75 453.22 2044.78 454.384 2049.07 454.384C2055.88 454.384 2061.25 451.609 2065.19 446.059C2069.3 440.508 2072.79 433.526 2075.66 425.111C2075.3 414.011 2074.67 401.031 2073.78 386.171C2072.88 371.311 2071.63 355.824 2070.02 339.711C2068.59 323.598 2066.62 307.395 2064.11 291.103C2061.78 274.631 2058.83 259.324 2055.25 245.18C2060.8 247.149 2067.42 248.939 2075.12 250.551C2081.75 251.983 2089.8 253.236 2099.29 254.311C2108.78 255.206 2119.97 255.653 2132.86 255.653C2148.08 255.653 2165.27 254.579 2184.42 252.431Z" fill="#FCEEE2"/>
</g>
<defs>
<filter id="filter0_d" x="6.47363" y="162.733" width="2181.95" height="543.767" filterUnits="userSpaceOnUse" color-interpolation-filters="sRGB">
<feFlood flood-opacity="0" result="BackgroundImageFix"/>
<feColorMatrix in="SourceAlpha" type="matrix" values="0 0 0 0 0 0 0 0 0 0 0 0 0 0 0 0 0 0 127 0"/>
<feOffset dy="4"/>
<feGaussianBlur stdDeviation="2"/>
<feColorMatrix type="matrix" values="0 0 0 0 0 0 0 0 0 0 0 0 0 0 0 0 0 0 0.25 0"/>
<feBlend mode="normal" in2="BackgroundImageFix" result="effect1_dropShadow"/>
<feBlend mode="normal" in="SourceGraphic" in2="effect1_dropShadow" result="shape"/>
</filter>
</defs>
</svg>
