<svg width="17" height="19" viewBox="0 0 17 19" fill="none" xmlns="http://www.w3.org/2000/svg">
<path fill-rule="evenodd" clip-rule="evenodd" d="M0.380849 0.951185C0.317022 1.12389 0.282227 1.32827 0.282227 1.56118V17.0385C0.282227 17.2719 0.317074 17.4764 0.380991 17.6491L8.72928 9.29962L0.380849 0.951185ZM0.971212 18.2536C1.27247 18.3515 1.6508 18.2975 2.06048 18.0651L11.9022 12.4726L9.32662 9.89696L0.971212 18.2536ZM12.6645 12.0401L15.7077 10.3111C16.6854 9.75472 16.6854 8.84565 15.7077 8.28999L12.6631 6.55996L9.92391 9.29957L12.6645 12.0401ZM11.9013 6.12709L2.06048 0.535243C1.65073 0.302399 1.27234 0.24856 0.97106 0.34672L9.32657 8.70224L11.9013 6.12709Z" fill="black"/>
</svg>
