<svg xmlns="http://www.w3.org/2000/svg" width="24" height="24" viewBox="0 0 16 24" fill="none" class="injected-svg" data-src="/static/media/lucca.3559bcc2.svg?type=svg" xmlns:xlink="http://www.w3.org/1999/xlink">
<g clip-path="url(#clip0-3)">
<path d="M5.10145 15.1176C1.4051 13.6941 -0.623824 9.94583 0.170484 6.16692C0.909754 2.65194 4.0038 0.07263 7.5169 0.00195526C11.1807 -0.0718467 14.3479 2.29169 15.2592 5.78102C16.2412 9.54117 14.2942 13.6741 10.4108 15.1157C10.8911 15.4416 11.3177 15.8006 11.6761 16.2378C13.6343 18.6263 12.9726 22.3114 10.3114 23.8187C9.7641 24.1289 9.13679 24.0214 8.76465 23.5535C8.41253 23.1113 8.42941 22.4559 8.80155 22.0268C8.93414 21.8742 9.11114 21.7823 9.27313 21.6697C10.1744 21.0424 10.6353 19.9372 10.382 18.879C10.1162 17.7695 9.41573 17.0527 8.28744 16.8069C7.07346 16.5417 5.85636 17.1659 5.31723 18.3042C4.79061 19.4162 5.1077 20.7835 6.07151 21.5496C6.18534 21.6403 6.30917 21.7179 6.43051 21.7985C7.00654 22.1819 7.17353 22.8712 6.82579 23.4359C6.47804 24.0007 5.78756 24.164 5.18776 23.8243C2.0393 22.0375 1.83853 17.458 4.815 15.3234C4.89818 15.2639 4.98137 15.2039 5.10145 15.1176ZM7.77958 2.71887C6.38923 2.71699 5.09269 3.26925 4.11763 4.27746C1.88044 6.59222 2.37328 10.4493 5.11709 12.1174C5.46671 12.33 5.83196 12.4057 6.22099 12.2662C6.68694 12.0992 6.95525 11.7515 7.00216 11.2661C7.05095 10.7664 6.83017 10.3849 6.40487 10.1122C5.47546 9.51678 5.02264 8.66868 5.08456 7.55977C5.16462 6.12439 6.55372 4.93668 7.96972 5.08991C9.54082 5.26003 10.661 6.64288 10.4333 8.12705C10.3007 8.99266 9.86292 9.65125 9.12053 10.1172C8.552 10.4743 8.36249 11.0948 8.62955 11.6577C8.94978 12.3319 9.71407 12.5239 10.4096 12.1042C12.3215 10.9497 13.2503 8.58737 12.6461 6.41397C12.0432 4.24494 10.0374 2.72199 7.77958 2.71887Z" fill="#ED6F2D"></path>
</g>
<defs>
<clipPath id="clip0-3">
<rect width="15.5115" height="24" fill="white"></rect>
</clipPath>
</defs>
</svg>