<svg xmlns="http://www.w3.org/2000/svg" width="24" height="24" viewBox="0 0 24 24" fill="none" class="injected-svg" data-src="/static/media/setting.5afe6874.svg?type=svg" xmlns:xlink="http://www.w3.org/1999/xlink">
<path d="M12 16.5C14.4853 16.5 16.5 14.4853 16.5 12C16.5 9.51472 14.4853 7.5 12 7.5C9.51472 7.5 7.5 9.51472 7.5 12C7.5 14.4853 9.51472 16.5 12 16.5Z" stroke="#2E2836" stroke-width="1.5" stroke-miterlimit="10" stroke-linecap="round" stroke-linejoin="round"></path>
<path d="M4.90322 8.58739C5.07197 8.23114 5.26884 7.89364 5.49384 7.56551L5.45634 5.12801C5.45634 4.90301 5.55009 4.68739 5.72822 4.53739C6.60009 3.80614 7.59384 3.21551 8.69072 2.82176C8.90634 2.74676 9.14072 2.76551 9.32822 2.88739L11.4188 4.14364C11.8126 4.11551 12.2063 4.11551 12.6001 4.14364L14.6907 2.88739C14.8876 2.77489 15.122 2.74676 15.3376 2.82176C16.4063 3.20614 17.4095 3.77801 18.3001 4.52801C18.4688 4.66864 18.572 4.89364 18.5626 5.11864L18.5251 7.55614C18.7501 7.88426 18.947 8.22176 19.1157 8.57801L21.2438 9.75926C21.4407 9.87176 21.5813 10.0593 21.6188 10.2843C21.8157 11.3999 21.8251 12.5624 21.6188 13.6968C21.5813 13.9218 21.4407 14.1093 21.2438 14.2218L19.1157 15.403C18.947 15.7593 18.7501 16.0968 18.5251 16.4249L18.5626 18.8624C18.5626 19.0874 18.4688 19.303 18.2907 19.453C17.4188 20.1843 16.4251 20.7749 15.3282 21.1686C15.1126 21.2436 14.8782 21.2249 14.6907 21.103L12.6001 19.8468C12.2063 19.8749 11.8126 19.8749 11.4188 19.8468L9.32822 21.103C9.13134 21.2155 8.89697 21.2436 8.68134 21.1686C7.61259 20.7843 6.60947 20.2124 5.71884 19.4624C5.55009 19.3218 5.44697 19.0968 5.45634 18.8718L5.49384 16.4343C5.26884 16.1061 5.07197 15.7686 4.90322 15.4124L2.77509 14.2311C2.57822 14.1186 2.43759 13.9311 2.40009 13.7061C2.20322 12.5905 2.19384 11.428 2.40009 10.2936C2.43759 10.0686 2.57822 9.88114 2.77509 9.76864L4.90322 8.58739Z" stroke="#2E2836" stroke-width="1.5" stroke-miterlimit="10" stroke-linecap="round" stroke-linejoin="round"></path>
</svg>