<svg xmlns="http://www.w3.org/2000/svg" xmlns:xlink="http://www.w3.org/1999/xlink" width="40" height="40" preserveAspectRatio="xMidYMid meet" viewBox="0 0 40 40" style="-ms-transform: rotate(360deg); -webkit-transform: rotate(360deg); transform: rotate(360deg);"><path fill="#626262" d="M15.781 17.868H4.534c-1.02 0-1.85-.831-1.85-1.854V4.768c0-1.02.83-1.85 1.85-1.85h11.247c1.02 0 1.85.83 1.85 1.85v11.247c0 1.022-.83 1.853-1.85 1.853zM4.534 3.804a.964.964 0 0 0-.963.964v11.247c0 .533.432.967.963.967h11.247a.966.966 0 0 0 .963-.967V4.768a.964.964 0 0 0-.963-.964H4.534z"/><path fill="#626262" d="M35.469 17.868h-11.25a1.853 1.853 0 0 1-1.849-1.854V4.768c0-1.02.829-1.85 1.849-1.85h11.25a1.85 1.85 0 0 1 1.847 1.85v11.247a1.853 1.853 0 0 1-1.847 1.853zM24.219 3.804a.964.964 0 0 0-.963.964v11.247c0 .533.432.967.963.967h11.25c.52 0 .96-.443.96-.967V4.768a.962.962 0 0 0-.96-.964h-11.25z"/><path fill="#626262" d="M15.781 37.083H4.534c-1.02 0-1.85-.83-1.85-1.85v-11.25c0-1.021.83-1.851 1.85-1.851h11.247c1.02 0 1.85.83 1.85 1.851v11.249c0 1.02-.83 1.851-1.85 1.851zM4.534 23.019a.965.965 0 0 0-.963.964v11.249c0 .532.432.964.963.964h11.247a.964.964 0 0 0 .963-.964V23.983a.964.964 0 0 0-.963-.964H4.534z"/><path fill="#626262" d="M35.469 37.083h-11.25c-1.02 0-1.849-.83-1.849-1.85v-11.25c0-1.021.829-1.851 1.849-1.851h11.25c1.018 0 1.847.83 1.847 1.851v11.249a1.852 1.852 0 0 1-1.847 1.851zm-11.25-14.064a.965.965 0 0 0-.963.964v11.249c0 .532.432.964.963.964h11.25c.53 0 .96-.432.96-.964V23.983a.962.962 0 0 0-.96-.964h-11.25z"/><rect x="0" y="0" width="40" height="40" fill="rgba(0, 0, 0, 0)" /></svg>