<svg xmlns="http://www.w3.org/2000/svg" xmlns:xlink="http://www.w3.org/1999/xlink" width="36" height="36" preserveAspectRatio="xMidYMid meet" viewBox="0 0 36 36" style="-ms-transform: rotate(360deg); -webkit-transform: rotate(360deg); transform: rotate(360deg);"><path class="clr-i-outline clr-i-outline-path-1" d="M33.71 17.29l-15-15a1 1 0 0 0-1.41 0l-15 15a1 1 0 0 0 1.41 1.41L18 4.41l14.29 14.3a1 1 0 0 0 1.41-1.41z" fill="#626262"/><path class="clr-i-outline clr-i-outline-path-2" d="M28 32h-5V22H13v10H8V18l-2 2v12a2 2 0 0 0 2 2h7V24h6v10h7a2 2 0 0 0 2-2V19.76l-2-2z" fill="#626262"/><rect x="0" y="0" width="36" height="36" fill="rgba(0, 0, 0, 0)" /></svg>