<svg width="16" height="19" viewBox="0 0 16 19" fill="none" xmlns="http://www.w3.org/2000/svg">
<path d="M12.8692 9.87239C12.8871 8.48287 13.6333 7.16808 14.8171 6.44029C14.0703 5.37371 12.8194 4.69747 11.518 4.65675C10.1299 4.51105 8.78428 5.48734 8.07695 5.48734C7.35593 5.48734 6.26688 4.67121 5.09416 4.69534C3.56557 4.74473 2.14053 5.6138 1.39684 6.9502C-0.201807 9.71801 0.990639 13.7858 2.52201 16.023C3.28819 17.1186 4.18363 18.3423 5.35529 18.2989C6.50184 18.2514 6.93005 17.5678 8.31403 17.5678C9.68516 17.5678 10.0869 18.2989 11.2824 18.2713C12.5126 18.2514 13.2878 17.1709 14.0271 16.065C14.5776 15.2844 15.0012 14.4217 15.2822 13.5087C13.8364 12.8972 12.8709 11.4422 12.8692 9.87239Z" fill="black"/>
<path d="M10.6112 3.1854C11.282 2.38012 11.6125 1.34506 11.5324 0.300049C10.5076 0.407689 9.56092 0.897499 8.88105 1.67188C8.21623 2.4285 7.87025 3.44534 7.93566 4.45041C8.96087 4.46097 9.96874 3.98444 10.6112 3.1854Z" fill="black"/>
</svg>
