<svg width="1602" height="485" viewBox="0 0 1602 485" fill="none" xmlns="http://www.w3.org/2000/svg">
<path d="M144.126 483.669C117.773 483.045 94.472 481.928 92.3456 481.185C90.2192 480.443 78.5421 478.832 66.3965 477.605C37.8954 474.728 24.2812 472.612 17.6616 470.033C14.7299 468.891 11.0164 467.842 9.40933 467.702C4.5294 467.278 -1.05132 460.165 0.170464 455.926C0.747071 453.926 1.55144 449.036 1.95795 445.06C2.37852 440.947 3.8399 436.701 5.34881 435.21C9.91159 430.7 13.7313 379.438 10.8292 361.661C10.053 356.906 10.4251 354.011 12.224 350.807C13.5734 348.405 14.5874 346.106 14.4774 345.699C14.0104 343.973 16.5236 331.565 17.6001 330.282C18.2472 329.511 19.2788 321.622 19.8927 312.752C22.7952 270.812 26.4951 233.002 27.9016 230.906C28.4815 230.042 29.4326 220.179 30.0153 208.988C31.43 181.814 34.0828 151.329 35.9451 140.846C36.7784 136.154 37.4601 126.411 37.4601 119.193C37.4601 105.279 39.5972 91.9088 42.972 84.7094C46.235 77.7482 72.5788 58.9211 79.0562 58.9211C80.0808 58.9211 83.4832 57.3167 86.617 55.3557C89.7509 53.3948 98.648 49.5941 106.388 46.9097C114.129 44.2254 121.748 41.3568 123.32 40.5352C127.305 38.453 145.463 34.1297 163.866 30.8817C167.636 30.2164 174.832 28.6972 179.857 27.5057C186.929 25.8292 191.68 25.6144 200.869 26.5556C207.4 27.2246 214.015 27.4656 215.569 27.0913C218.378 26.4151 232.728 28.5798 240.015 30.7788C242.109 31.4107 247.591 32.6734 252.198 33.5848C262.8 35.6821 281.126 40.535 284.374 42.105C285.736 42.7639 289.506 43.7478 292.75 44.2913C295.994 44.8349 301.881 46.7713 305.832 48.5944C309.783 50.4175 313.789 51.9091 314.735 51.9091C315.68 51.9091 318.273 53.0885 320.497 54.5299C322.72 55.9714 326.252 57.6355 328.347 58.228C332.816 59.4928 343.595 66.0184 351.312 72.1322C354.31 74.5075 358.006 77.1084 359.526 77.9122C362.45 79.4583 366.778 96.8462 369.459 117.821C370.199 123.606 371.567 132.125 372.499 136.753C373.43 141.381 374.734 148.954 375.396 153.582C376.057 158.21 377.712 166.098 379.073 171.112C381.257 179.157 384.728 197.303 386.853 211.781C387.249 214.48 388.299 219.844 389.187 223.701C390.751 230.496 392.657 240.834 394.745 253.852C395.302 257.323 396.629 261.109 397.694 262.266C398.759 263.423 400.351 270.996 401.23 279.095C402.814 293.68 404.51 304.193 407.903 320.465C408.868 325.093 409.848 331.719 410.081 335.19C410.694 344.335 412.091 352.261 413.727 355.875C414.513 357.611 415.805 360.451 416.599 362.186C417.393 363.922 418.389 368.181 418.812 371.652C419.235 375.123 420.272 381.434 421.116 385.676C424.911 404.745 425.601 409.227 425.705 415.486C425.795 420.85 426.59 422.773 429.769 425.303C435.783 430.09 438 435.203 438 444.289C438 450.475 437.309 453.132 435.252 454.845C431.089 458.315 396.438 468.432 388.81 468.405C386.966 468.394 381.003 469.331 375.558 470.477C363.96 472.918 317.808 479.209 310.071 479.404C307.139 479.478 294.461 480.213 281.896 481.039C251.004 483.068 205.607 485.206 198.133 484.984C194.782 484.884 170.48 484.292 144.126 483.669V483.669ZM259.443 474.141C327.377 470.12 353.79 467.149 397.641 458.596C419.571 454.319 420.278 454.128 424.674 451.293C430.679 447.421 430.542 439.424 424.361 432.941C420.531 428.925 418.204 427.944 408.751 426.366C402.641 425.346 397.047 424.029 396.319 423.44C395.592 422.85 392.74 422.705 389.982 423.117C387.174 423.537 382.056 422.903 378.358 421.677C371.873 419.528 340.166 416.633 311.594 415.582C298.119 415.086 235.4 413.644 228.592 413.674C188.921 413.846 135.831 417.027 118.939 420.244C114.431 421.102 88.9471 424.485 78.5802 425.602C69.7958 426.547 58.4034 428.915 51.9283 431.14C48.5778 432.292 43.7805 433.262 41.2676 433.296C29.5664 433.456 13.0927 442.553 13.0927 448.855C13.0927 452.296 13.2379 452.287 24.3955 448.18C35.5471 444.075 58.096 439.524 80.8647 436.783C90.0786 435.673 101.428 434.133 106.085 433.36C110.743 432.587 118.299 431.955 122.878 431.955C127.456 431.955 136.667 431.337 143.346 430.583C173.481 427.18 197.994 426.301 245.726 426.913C258.5 427.077 269.771 426.745 270.773 426.175C271.775 425.605 273.934 425.799 275.572 426.606C277.289 427.452 291.834 428.233 309.921 428.451C327.175 428.659 347.117 429.508 354.237 430.337C361.357 431.167 374.378 432.557 383.173 433.426C406.704 435.752 419.724 439.716 419.724 444.553C419.724 447.014 418.73 447.381 412.061 447.381C407.846 447.381 401.947 446.438 398.954 445.287C392.37 442.754 390.788 443.454 390.788 448.901C390.788 452.143 389.869 453.382 386.619 454.519C383.07 455.762 382.05 455.525 379.765 452.927C378.289 451.248 377.081 448.645 377.081 447.143C377.081 445.624 376.384 444.807 375.512 445.304C374.648 445.795 374.32 448.199 374.782 450.646C375.915 456.641 374.487 458.097 366.421 459.17C349.693 461.395 350.812 461.928 348.289 450.536C347.05 444.944 345.483 440.369 344.806 440.369C344.13 440.369 343.576 445.102 343.576 450.887C343.576 456.672 343.188 461.405 342.715 461.405C342.241 461.405 340.596 460.785 339.059 460.028C336.965 458.996 336.04 459.194 335.363 460.819C334.746 462.298 332.898 462.846 329.543 462.546L324.626 462.106L322.298 449.677L319.97 437.248L282.658 436.56C262.136 436.182 243.669 435.879 241.621 435.886C235.132 435.909 233.649 439.656 234.788 453.155C235.851 465.759 234.598 469.038 230.049 465.561C228.31 464.232 227.329 464.249 225.51 465.64C222.467 467.965 222.289 467.658 221.417 458.6C220.463 448.7 221.842 443.735 225.385 444.312C227.392 444.64 227.942 443.966 227.568 441.636C227.175 439.182 226.016 438.495 222.101 438.394C216.162 438.241 215.914 438.841 215.885 453.476C215.872 459.528 215.412 464.892 214.862 465.396C214.312 465.901 212.558 464.833 210.965 463.023L208.068 459.733L206.565 463.374C205.738 465.376 204.017 467.015 202.74 467.015C200.823 467.015 200.417 464.704 200.417 453.775C200.417 445.91 199.758 440.16 198.793 439.611C197.9 439.102 196.895 438.938 196.561 439.246C196.227 439.554 195.486 445.928 194.915 453.41C193.792 468.112 191.848 470.599 187.511 462.877C184.844 458.127 184.498 453.549 186.711 452.29C189.011 450.981 188.684 437.193 186.37 437.903C184.001 438.63 180.544 453.341 181.019 460.669C181.372 466.122 181.246 466.27 175.288 467.429C171.938 468.08 163.714 468.517 157.013 468.401C144.68 468.186 139.499 466.259 139.499 461.889C139.499 458.548 136.878 459.879 134.93 464.21C132.984 468.535 129.257 469.644 126.181 466.812C124.873 465.607 123.302 465.641 119.877 466.947C117.368 467.904 114.581 468.269 113.684 467.759C112.76 467.233 112.145 462.926 112.265 457.818C112.396 452.263 111.726 447.971 110.518 446.631C107.428 443.203 105.583 446.339 105.666 454.877C105.736 462.035 105.442 462.677 101.396 464.221C97.7241 465.621 96.4523 465.477 93.1935 463.291C88.5017 460.144 88.318 458.549 92.2869 455.42C93.9622 454.099 95.3328 451.833 95.3328 450.383C95.3328 446.894 86.8007 445.588 76.8458 447.554L69.4424 449.016V455.211C69.4424 460.399 68.9643 461.405 66.4976 461.405C64.4173 461.405 63.4114 460.273 63.071 457.549C62.44 452.499 58.1815 452.408 57.5507 457.43C57.027 461.6 53.326 463.637 50.3736 461.381C47.7645 459.387 33.5209 457.93 32.4362 459.546C31.9594 460.257 32.0822 461.602 32.7092 462.536C33.7559 464.096 40.7721 465.169 70.2039 468.269C76.0673 468.886 84.2913 470.427 88.4795 471.694C93.8504 473.318 102.153 474.05 116.654 474.177C127.962 474.277 139.229 474.757 141.692 475.244C148.578 476.606 230.806 475.836 259.443 474.141V474.141ZM313.94 461.054C312.639 457.28 312.175 443.174 313.352 443.174C315.371 443.174 319.209 452.935 319.209 458.07C319.209 461.389 318.511 462.807 316.876 462.807C315.594 462.807 314.272 462.018 313.94 461.054V461.054ZM208.883 437.974C208.427 436.879 207.28 436.424 206.334 436.962C204.545 437.981 205.43 450.332 207.65 455.325C208.979 458.315 210.2 441.134 208.883 437.974ZM332.414 449.098C333.395 448.524 334.695 446.227 335.304 443.994C336.332 440.221 336.152 439.997 332.759 440.833C330.751 441.328 328.667 441.742 328.129 441.752C326.517 441.784 325.332 445.825 326.273 448.082C327.223 450.361 329.589 450.753 332.414 449.098V449.098ZM176.914 439.409C176.491 438.394 175.512 437.564 174.738 437.564C172.292 437.564 171.423 441.856 173.237 444.976L174.981 447.978L176.332 444.616C177.075 442.766 177.337 440.423 176.914 439.409ZM32.4101 427.176C37.2817 425.319 42.5103 423.43 44.0293 422.978C45.5482 422.527 46.3607 421.517 45.8347 420.733C44.2534 418.377 46.5564 413.906 49.334 413.939C50.7609 413.955 55.6977 413.236 60.3046 412.34C64.9116 411.444 74.0425 410.373 80.5955 409.961C87.4808 409.527 92.7559 408.535 93.0923 407.61C93.4125 406.731 94.0171 400.015 94.4358 392.688C94.8546 385.36 95.2277 378.855 95.265 378.231C95.3023 377.607 95.9029 377.421 96.5997 377.817C99.1337 379.259 101.784 401.49 100.181 407.857C98.5506 414.333 99.7653 415.923 105.524 414.85C107.461 414.49 108.136 413.31 107.799 410.875C107.536 408.971 106.632 400.787 105.789 392.688C103.604 371.678 103.595 371.651 98.7305 371.662C96.443 371.662 88.9352 372.916 82.0467 374.437C69.1578 377.282 64.8735 377.057 64.8735 373.534C64.8735 370.458 73.5389 367.769 86.2189 366.909C92.488 366.484 99.3497 365.753 101.467 365.284C108.176 363.8 109.925 367.584 111.778 387.589C112.697 397.512 113.779 405.934 114.182 406.305C114.586 406.677 121.989 405.988 130.634 404.774C139.279 403.56 156.534 402.31 168.978 401.995C191.285 401.432 191.648 401.471 194.762 404.769C199.119 409.383 206.09 409.313 208.02 404.637C209.206 401.765 210.459 401.169 215.217 401.214C218.385 401.244 225.549 400.91 231.137 400.472C240.667 399.726 241.483 399.894 244.301 403.194C248.234 407.798 254.832 408.011 255.519 403.556L256.006 400.401H290.272H324.539L324.001 390.234C323.456 379.935 324.568 377.978 328.491 382.33C329.874 383.865 330.504 388.604 330.448 397.055C330.384 406.659 330.84 409.517 332.434 409.517C333.572 409.517 335.292 407.924 336.255 405.977C337.218 404.03 339.431 402.141 341.172 401.779C346.924 400.582 379.239 402.136 386.219 403.944C395.24 406.282 397.044 407.727 395.949 411.741C395.137 414.722 395.666 415.139 401.328 415.972C404.782 416.481 407.976 417.445 408.426 418.115C408.875 418.785 410.574 419.333 412.199 419.333C414.632 419.333 415.124 418.402 414.975 414.074C414.631 404.027 413.086 400.368 409.346 400.742C405.196 401.157 402.95 396.63 402.218 386.377C401.943 382.521 401.239 377.079 400.654 374.285C399.948 370.911 400.2 368.857 401.406 368.171C404.779 366.251 395.486 359.031 389.642 359.031C386.811 359.031 383.326 358.454 381.896 357.75C377.199 355.435 362.419 354.597 360.765 356.552C358.278 359.492 362.927 381.754 366.516 384.094C370.978 387.004 370.2 389.883 364.951 389.883C359.067 389.883 357.613 387.202 355.666 372.752C352.865 351.973 352.934 352.043 334.631 351.2C328.243 350.906 318.219 350.379 312.355 350.029C306.492 349.679 297.583 349.45 292.557 349.522C287.531 349.593 282.048 349.632 280.373 349.609C245.485 349.122 220.041 349.145 219.11 349.664C218.462 350.025 209.708 350.7 199.656 351.163C153.132 353.307 144.184 353.891 142.41 354.9C139.987 356.279 137.932 370.193 139.69 373.313C140.423 374.612 141.022 377.532 141.022 379.803C141.022 385.147 144.31 387.808 148.415 385.785C150.075 384.967 153.462 384.671 155.941 385.128C162.333 386.305 166.625 383.747 167.197 378.42C167.459 375.973 168.505 373.72 169.521 373.414C172.161 372.616 173.342 378.423 171.865 384.936L170.601 390.507L153.908 392.217C144.726 393.157 136.647 393.409 135.954 392.777C133.857 390.866 131.755 381.432 130.648 368.959C129.954 361.142 128.922 356.945 127.595 356.541C125.992 356.053 125.738 358.846 126.327 370.452C126.733 378.44 127.535 387.651 128.11 390.923C128.967 395.8 128.688 397.036 126.559 397.788C122.856 399.097 121.18 395.921 121.275 387.78C121.385 378.426 119.181 360.17 117.678 357.979C116.178 355.794 108.717 355.682 106.407 357.809C105.461 358.679 101.384 359.603 97.3451 359.861C60.0811 362.239 32.0574 367.627 27.3145 373.324C24.808 376.335 22.3818 389.634 21.4796 405.309C21.0135 413.408 20.2314 422.401 19.7417 425.293C18.6521 431.729 19.9573 431.923 32.4101 427.176V427.176ZM29.7698 418.548C28.3343 416.955 27.6911 411.669 27.6375 401.024C27.5742 388.438 28.0158 385.361 30.1701 383.376C32.6346 381.104 32.8458 381.121 33.9775 383.674C34.6365 385.161 35.1757 393.895 35.1757 403.083C35.1757 420.056 34.0447 423.291 29.7698 418.548V418.548ZM45.7482 410.826C43.7293 407.874 42.8502 378.664 44.7803 378.664C48.3644 378.664 51.1181 403.443 48.2766 410.125C47.3255 412.361 46.8824 412.484 45.7482 410.826ZM55.6056 398.074C54.6375 396.408 53.4844 389.717 53.0433 383.206C52.2931 372.134 52.4284 371.4 55.1307 371.873C57.5479 372.296 58.1446 373.981 58.7817 382.183L59.5431 391.987L67.158 392.688C76.3048 393.53 77.3557 396.488 69.4424 399.117C61.4409 401.777 57.5889 401.486 55.6056 398.074V398.074ZM80.2828 394.968C77.1595 391.906 77.0031 391.069 78.5598 385.746C79.8187 381.441 80.9552 380.01 82.8527 380.342C84.8243 380.687 85.544 382.576 85.9014 388.344C86.4711 397.537 84.8517 399.446 80.2828 394.968V394.968ZM204.087 396.368C202.796 393.272 204.513 391.691 206.839 393.833C208.213 395.098 208.219 395.882 206.864 397.13C205.509 398.377 204.848 398.196 204.087 396.368H204.087ZM248.627 393.524C247.308 391.67 245.584 385.517 244.798 379.851C244.011 374.185 242.601 367.742 241.663 365.533L239.959 361.518L215.239 362.536C201.642 363.096 190.105 363.778 189.6 364.052C189.095 364.326 188.299 370.952 187.831 378.776C186.955 393.402 185.712 396.516 181.361 394.979C179.162 394.202 178.983 392.381 179.915 380.281C180.861 368.001 180.69 366.368 178.377 365.55C176.946 365.045 175.082 365.025 174.235 365.507C173.389 365.989 169.167 366.78 164.854 367.265C157.955 368.04 156.952 368.567 156.503 371.652C156.223 373.581 155.459 375.672 154.806 376.3C152.678 378.347 148.637 372.972 148.637 368.095C148.637 360.513 150.966 359.96 189.757 358.326C201.065 357.849 212.03 356.98 214.124 356.393C216.218 355.806 224.409 355.771 232.325 356.314C252.764 357.716 252.84 357.819 256.171 388.831C256.962 396.194 256.776 396.895 254.032 396.895C252.378 396.895 249.946 395.378 248.627 393.524V393.524ZM387.931 391.61C387.138 390.246 385.995 386.705 385.391 383.741C384.558 379.65 383.056 377.679 379.164 375.564C369.713 370.429 374.224 365.214 384.181 369.765C389.386 372.144 390 373.069 391.76 381.193C393.638 389.857 393.283 394.09 390.679 394.09C389.96 394.09 388.724 392.974 387.931 391.61V391.61ZM335.091 387.429C334.536 384.537 332.842 378.699 331.327 374.457L328.571 366.744L320.463 365.692C316.004 365.113 307.901 364.798 302.456 364.991L292.557 365.341V361.134V356.927L308.548 356.96C329.044 357.001 332.757 358.527 336.167 368.307C337.536 372.235 339.145 379.327 339.743 384.068C340.661 391.355 340.464 392.688 338.464 392.688C336.926 392.688 335.747 390.85 335.091 387.429V387.429ZM311.594 388.479C310.337 387.732 303.786 387.112 297.036 387.1C289.64 387.087 283.741 386.382 282.191 385.325C279.148 383.251 275.043 369.662 275.043 361.664C275.043 357.071 275.533 356.107 277.675 356.487C279.544 356.819 280.648 358.983 281.483 363.952C282.13 367.802 283.033 373.002 283.489 375.509L284.319 380.066H298.427C313.473 380.066 318.448 381.709 317.471 386.354C316.805 389.514 314.647 390.295 311.594 388.479ZM224.053 384.326C221.761 380.244 221.169 380.016 213.846 380.38C205.891 380.777 203.931 379.574 206.479 375.859C208.543 372.849 223.831 372.978 227.15 376.034C230.084 378.735 230.895 387.227 228.301 388.07C227.303 388.394 225.391 386.71 224.053 384.326V384.326ZM347.319 382.775C345.782 380.485 342.446 364.746 343.326 363.936C346.518 360.996 351.191 369.684 351.191 378.559C351.191 382.981 349.034 385.33 347.319 382.775ZM266.957 377.612C265.389 375.078 262.607 361.6 263.485 360.792C264.018 360.301 265.4 360.808 266.555 361.919C269.191 364.454 271.422 378.664 269.184 378.664C268.317 378.664 267.315 378.191 266.957 377.612V377.612ZM366.421 410.919C366.421 410.148 365.735 409.517 364.898 409.517C364.06 409.517 363.375 410.148 363.375 410.919C363.375 411.69 364.06 412.321 364.898 412.321C365.735 412.321 366.421 411.69 366.421 410.919ZM36.6987 360.542C40.0492 359.913 45.8745 358.694 49.6439 357.832C70.4515 353.075 83.9852 350.691 97.6173 349.382C105.994 348.578 119.7 347.188 128.077 346.294C136.453 345.4 150.258 344.508 158.756 344.311C167.253 344.114 174.943 343.533 175.846 343.02C178.313 341.616 206.902 340.906 254.483 341.068C317.623 341.283 320.087 341.366 322.725 343.382C324.506 344.743 325.885 344.817 328.198 343.678C330.468 342.559 336.164 342.71 349.632 344.245C369.283 346.486 375.558 345.625 375.558 340.692C375.558 337.611 372.624 336.557 368.93 338.311C367.379 339.047 364.637 339.196 362.838 338.641C359.67 337.665 352.001 336.781 319.97 333.701C274.162 329.296 172.346 329.755 157.955 334.431C153.152 335.991 150.615 336.165 148.426 335.086C146.307 334.042 143.865 334.095 140.005 335.268C137.015 336.176 131.444 336.596 127.625 336.199C123.806 335.803 119.603 336.031 118.287 336.707C116.97 337.383 104.242 339.174 90.0024 340.687C75.7627 342.2 54.8833 345.21 43.6037 347.378C25.1002 350.932 22.8743 351.682 20.8329 355.04C17.8015 360.028 20.8314 363.914 26.7068 362.574C28.8518 362.085 33.3481 361.17 36.6987 360.542ZM402.252 350.555C402.792 349.75 402.132 347.541 400.783 345.646C398.599 342.576 397.263 342.202 388.468 342.202C379.651 342.202 378.604 342.497 378.604 344.98C378.604 346.87 379.944 348.03 382.792 348.609C385.096 349.077 388.694 349.985 390.788 350.628C396.206 352.292 401.107 352.261 402.252 350.555V350.555ZM42.7905 342.147C46.9787 341.502 53.4894 340.327 57.2587 339.536C71.8711 336.468 81.2741 334.934 91.6102 333.931C97.5202 333.357 103.071 332.481 103.946 331.983C105.267 331.231 153.39 327.776 160.82 327.9C162.077 327.921 164.475 327.984 166.151 328.041C167.826 328.098 177.421 327.393 187.472 326.474C203.826 324.978 231.81 324.596 279.612 325.213C296.931 325.437 343.445 328.702 361.852 330.986C368.134 331.766 376.596 332.651 380.657 332.953C384.718 333.254 388.796 334.197 389.719 335.047C391.995 337.143 396.837 337.006 397.06 334.84C397.448 331.077 396.539 328.795 393.85 326.776C390.291 324.105 387.762 315.54 387.751 306.123C387.742 298.33 381.871 281.791 377.556 277.4C375.893 275.709 372.892 274.888 368.369 274.888C364.674 274.888 360.497 274.338 359.086 273.666C357.676 272.994 351.474 272.126 345.304 271.738L334.088 271.032L334.968 277.518C335.453 281.085 336.843 289.617 338.057 296.478C340.412 309.783 340.034 313.14 336.26 312.47C332.815 311.859 331.216 305.625 329.968 287.938C328.919 273.08 327.22 267.876 323.418 267.876C322.52 267.876 322.324 269.722 322.934 272.434C323.498 274.94 324.582 281.724 325.344 287.509C326.105 293.294 327.169 300.07 327.708 302.567C328.961 308.381 327.395 314.155 324.564 314.155C321.033 314.155 319.689 310.093 318.681 296.379C317.631 282.101 313.524 268.577 310.237 268.577C307.125 268.577 304.242 273.278 306.542 274.602C309.789 276.47 315.551 296.498 315.962 307.345C316.202 313.687 313.528 314.444 295.334 313.189L278.85 312.051L276.324 305.039C273.964 298.488 273.764 298.304 273.278 302.234C272.805 306.066 272.249 306.445 267.047 306.487C261.642 306.529 261.336 306.294 261.336 302.101C261.336 299.663 262.364 296.884 263.62 295.924C266.74 293.54 266.488 290.7 263.005 288.984C260.971 287.981 259.802 285.35 259.088 280.17C257.659 269.801 256.894 267.876 254.203 267.876C252.461 267.876 252.049 268.867 252.629 271.662C253.061 273.744 252.728 277.057 251.888 279.024L250.362 282.601L248.9 279.095C248.097 277.167 247.846 273.587 248.342 271.141C248.863 268.577 248.552 266.298 247.609 265.761C245.089 264.327 241.558 267.799 241.361 271.904C241.222 274.806 241.029 274.993 240.451 272.784C239.318 268.444 237.37 267.225 234.757 269.222C232.804 270.715 231.946 270.475 229.571 267.775L226.725 264.538L224.822 267.812C223.609 269.899 223.295 273.17 223.956 276.843C225.672 286.37 225.63 287.9 223.643 288.536C222.239 288.985 221.739 286.583 221.739 279.384C221.739 268.781 220.064 266.039 214.417 267.399C212.572 267.843 210.046 267.431 208.805 266.482C207.564 265.534 205.431 265.152 204.065 265.635C201.898 266.401 201.72 268.252 202.667 280.166C203.264 287.676 204.282 296.495 204.931 299.764C206.154 305.931 203.934 311.248 200.866 309.501C200.02 309.02 198.836 300.272 198.233 290.061C197.63 279.849 196.509 270.415 195.742 269.096C194.53 267.009 192.415 266.784 179.488 267.367C156.686 268.394 118.039 271.897 112.095 273.475C109.169 274.252 103.344 274.903 99.1503 274.921C91.717 274.954 80.6305 276.74 79.0977 278.151C78.6773 278.538 79.0433 280.076 79.9108 281.569C80.9331 283.328 81.1105 290.895 80.4149 303.075L79.3417 321.868H75.5343H71.7269L71.6182 302.234C71.4892 278.943 71.4125 278.113 69.5512 279.866C68.0687 281.263 65.8533 308.659 66.2952 320.131C66.4672 324.597 65.8961 326.966 64.5707 327.284C63.4808 327.546 59.391 328.751 55.4823 329.962C44.7688 333.282 43.552 331.408 43.552 311.59C43.552 297.624 43.2103 295.609 40.4042 293.025C35.9166 288.893 33.4345 291.437 32.4145 301.216C29.6667 327.56 28.3685 338.038 27.4231 341.507C26.4023 345.252 26.5396 345.37 30.7671 344.367C33.1918 343.791 38.6024 342.792 42.7905 342.147V342.147ZM87.1695 319.686C85.5208 316.334 86.7096 283.294 88.4795 283.281C89.3171 283.276 90.1951 286.59 90.4305 290.649C91.001 300.481 88.533 322.458 87.1695 319.686ZM377.23 315.348C376.311 312.919 375.542 308.659 375.521 305.882C375.501 303.104 374.794 298.077 373.951 294.71C373.108 291.344 372.868 287.284 373.418 285.688C374.353 282.978 374.573 283.058 376.766 286.901C379.469 291.639 383.513 314.511 382.204 317.654C380.822 320.969 379.047 320.146 377.23 315.348ZM110.67 308.311C110.728 305.74 111.335 302.375 112.018 300.832C113.17 298.229 113.336 298.295 114.322 301.741C115.721 306.634 114.842 311.688 112.466 312.409C111.186 312.797 110.598 311.455 110.67 308.311ZM355.161 311.116C354.134 307.917 351.17 287.006 351.181 283.034C351.193 278.656 353.719 276.656 356.273 279.003C358.486 281.035 361.647 303.837 360.356 308.454C359.278 312.308 356.072 313.951 355.161 311.116H355.161ZM99.9017 308.628C99.9017 307.04 100.587 305.74 101.425 305.74C102.262 305.74 102.948 306.65 102.948 307.761C102.948 308.872 102.262 310.172 101.425 310.649C100.587 311.125 99.9017 310.216 99.9017 308.628ZM214.059 307.772C211.663 305.113 210.375 271.246 212.622 269.967C214.623 268.829 215.711 273.657 215.494 282.72C215.385 287.282 215.991 294.486 216.84 298.728C218.619 307.61 217.422 311.503 214.059 307.772V307.772ZM233.802 304.802C232.697 302.164 232.598 298.479 233.506 293.82L234.873 286.808L236.585 292.418C239.196 300.976 239.516 307.482 237.359 308.169C236.317 308.501 234.716 306.986 233.802 304.802V304.802ZM345.234 305.365C343.9 302.136 340.53 283.874 340.53 279.878C340.53 276.371 343.066 277.357 344.824 281.549C346.693 286.009 348.931 308.545 347.504 308.545C346.978 308.545 345.956 307.114 345.234 305.365V305.365ZM251.543 305.478C249.906 300.723 249.081 283.302 250.493 283.302C253.139 283.302 254.062 286.093 254.684 295.962C255.038 301.593 254.645 305.915 253.732 306.435C252.877 306.922 251.891 306.491 251.543 305.479V305.478ZM99.4501 292.3C98.5619 284.375 99.2198 280.497 101.452 280.497C102.671 280.497 104.169 296.128 103.201 298.753C101.904 302.274 100.249 299.427 99.4501 292.3V292.3ZM224.905 297.91C224.978 296.277 225.339 295.944 225.825 297.063C226.265 298.075 226.211 299.285 225.705 299.751C225.199 300.217 224.839 299.389 224.905 297.91H224.905ZM111.793 288.18C111.038 282.228 112.649 279.053 115.222 281.422C117.049 283.104 115.906 291.11 113.656 292.39C112.974 292.779 112.135 290.884 111.793 288.18V288.18ZM241.789 285.136C240.614 283.115 240.53 281.772 241.544 281.195C243.329 280.179 245.175 283.773 244.221 286.407C243.8 287.569 242.942 287.12 241.789 285.136V285.136ZM233.082 282.917C231.87 280.009 232.731 276.22 234.684 275.866C236.807 275.48 237.578 281.9 235.624 283.698C234.504 284.73 233.74 284.496 233.082 282.917ZM276.566 285.532C276.566 278.596 273.946 270.681 271.651 270.681C270.122 270.681 271.304 289.55 272.99 292.062C274.683 294.584 276.566 291.145 276.566 285.532ZM45.2697 274.361C49.9344 272.608 58.0111 271.171 90.0024 266.403C95.8659 265.53 106.093 264.544 112.729 264.213C119.365 263.882 125.546 263.036 126.465 262.334C127.384 261.632 135.319 260.739 144.097 260.349C152.876 259.96 166.912 259.083 175.288 258.401C187.488 257.408 263.295 257.232 287.226 258.141C314.108 259.163 341.637 261.582 343.577 263.093C345.078 264.262 346.714 264.434 348.343 263.595C349.968 262.757 354.695 263.239 362.049 264.991C379.089 269.051 383.839 269.196 384.385 265.676C385.385 259.237 370.083 256.923 287.988 251.098C245.943 248.115 159.543 248.986 146.352 252.525C143.839 253.2 134.93 254.125 126.554 254.582C118.177 255.04 109.268 255.969 106.755 256.648C104.242 257.327 96.3608 258.602 89.241 259.481C82.1211 260.36 74.373 261.753 72.0229 262.577C68.9136 263.666 67.2754 263.637 66.0072 262.469C63.8609 260.493 58.7817 260.35 58.7817 262.266C58.7817 263.038 57.4514 263.669 55.8256 263.669C54.1998 263.669 52.446 264.3 51.9283 265.071C51.4106 265.842 47.9676 266.474 44.2772 266.474C39.0567 266.474 37.1939 267.116 35.8851 269.368C34.6364 271.516 34.6707 272.781 36.018 274.276C38.2568 276.76 38.8684 276.766 45.2698 274.36L45.2697 274.361ZM51.3392 258.719C55.7166 257.655 59.8532 257.101 60.5315 257.487C61.2099 257.873 64.349 257.572 67.5074 256.818C75.2774 254.963 88.6753 252.568 96.0943 251.709C99.4448 251.32 108.354 250.08 115.893 248.952C123.432 247.824 132.512 246.887 136.072 246.871C143.357 246.836 144.12 245.269 139.499 239.828C135.723 235.384 135.655 232.816 139.312 232.816C142.8 232.816 145.419 235.545 146.966 240.79C147.971 244.201 148.836 244.708 153.333 244.528C194.253 242.891 210.055 242.537 243.06 242.519C276.979 242.5 293.094 242.968 314.64 244.599C317.572 244.821 327.509 245.471 336.723 246.045C345.937 246.618 358.784 248.362 365.272 249.921C380.907 253.676 381.922 253.224 380.777 243.021C380.277 238.566 378.967 232.7 377.867 229.986C376.766 227.273 375.36 221.325 374.742 216.769C374.124 212.212 372.248 206.347 370.574 203.734C367.976 199.679 367.813 198.499 369.459 195.667C370.608 193.69 370.961 190.751 370.333 188.392C369.753 186.215 368.768 181.594 368.143 178.124C367.518 174.653 366.069 170.235 364.922 168.307C363.702 166.255 362.678 159.566 362.453 152.179C362.102 140.643 361.44 135.461 357.349 112.212C353.804 92.0664 350.616 85.8078 340.025 78.2041C331.187 71.8586 327.521 70.1471 322.656 70.0955C320.341 70.0709 317.189 69.1729 315.651 68.0997C313.893 66.8729 310.929 66.4362 307.668 66.9235C301.786 67.8025 297.402 65.369 298.58 61.8784C299.663 58.6681 297.112 55.552 294.233 56.5691C292.892 57.043 291.795 58.6701 291.795 60.1849C291.795 63.4516 287.082 65.1533 281.566 63.8784C278.624 63.1985 278.082 62.5731 279.391 61.3677C281.881 59.0748 281.613 51.9091 279.037 51.9091C276.049 51.9091 273.021 55.7026 274.046 58.1614C275.219 60.9765 271.083 64.5306 266.633 64.5306C262.137 64.5306 259.512 60.7296 261.739 57.4454C263.885 54.2821 262 50.1818 258.675 50.7795C256.832 51.1109 255.977 52.6279 255.913 55.6792C255.861 58.1101 255.111 60.9383 254.245 61.9642C253.379 62.99 252.244 64.9338 251.721 66.2836C250.177 70.2717 245.175 69.2304 243.036 64.4756C241.358 60.7448 241.46 59.9834 243.86 58.3677C245.596 57.1984 246.231 55.6338 245.592 54.0989C244.267 50.9206 240.906 52.0158 240.297 55.8245C239.427 61.258 227.831 70.6201 227.831 65.889C227.831 63.0039 223.423 62.98 220.308 65.8483C217.351 68.571 216.798 68.6328 212.729 66.6952C208.676 64.765 208.03 64.8296 204.289 67.5395L200.238 70.4738L196.803 67.5022C192.293 63.6006 189.122 63.75 185.46 68.0366C182.187 71.8678 179.188 72.4684 176.355 69.8597C173.625 67.346 174.143 64.0237 177.573 62.0513C181.9 59.5632 181.598 54.7139 177.116 54.7139C172.443 54.7139 169.958 57.2357 169.958 61.9778C169.958 65.1366 168.761 66.4385 163.645 68.8416C158.54 71.2398 156.632 71.5136 153.674 70.2725C147.926 67.8608 145.644 68.4227 142.855 72.936C139.808 77.8668 137.928 78.1722 134.168 74.3473C130.446 70.5593 127.546 70.8169 122.33 75.3991L117.939 79.2556L115.016 75.949C111.399 71.8578 107.933 72.8277 105.772 78.5359C103.988 83.2501 99.3406 84.2657 97.6671 80.3074C96.7337 78.0997 96.3289 78.1926 93.6371 81.2317L90.6447 84.6102L86.1913 81.5784L81.7379 78.5465L80.0577 81.4375C79.1335 83.0275 78.7962 86.0841 79.308 88.2299C79.9331 90.8506 79.4818 92.7097 77.9332 93.8931C75.9773 95.3879 75.2706 94.833 73.2715 90.2324C71.9756 87.25 69.4844 83.987 67.7356 82.9813C64.9363 81.3715 64.256 81.5422 62.0495 84.4076C60.671 86.1978 59.1911 89.8729 58.7607 92.5745C57.9928 97.3957 57.2776 97.8197 52.6898 96.1735C50.7915 95.4923 50.3314 97.3117 49.9678 106.938C49.7272 113.309 48.9083 123.255 48.1482 129.04C45.3792 150.113 44.9778 163.287 46.8939 170.208C48.5288 176.113 48.4605 177.231 46.3797 178.632C42.1226 181.499 36.8237 228.584 40.3889 231.867C42.7388 234.031 42.4116 238.701 39.6563 242.324C38.3512 244.039 36.9864 248.697 36.6234 252.674C35.8965 260.635 37.9743 264.783 41.3837 262.178C42.4818 261.338 46.9617 259.782 51.3392 258.719V258.719ZM76.5496 247.308C75.2416 246.103 75.2324 240.574 76.536 239.373C78.2692 237.777 81.6257 241.427 81.6257 244.908C81.6257 248.049 78.8027 249.383 76.5492 247.308H76.5496ZM62.7021 244.502C61.5549 241.749 63.8855 239.1 66.2638 240.454C68.664 241.82 68.2978 246.84 65.798 246.84C64.6311 246.84 63.238 245.788 62.7021 244.502V244.502ZM92.6926 245.669C90.1571 244.226 89.5645 238.177 91.8843 237.419C94.3155 236.624 97.8943 243.64 95.9641 245.417C95.1841 246.136 93.7119 246.249 92.6926 245.669ZM368.667 245.381C368.128 244.578 366.43 244.289 364.892 244.738C361.604 245.699 359.039 240.455 361.631 238.068C362.756 237.033 364.624 237.959 367.874 241.162C370.425 243.677 372.512 245.983 372.512 246.287C372.512 247.456 369.599 246.769 368.667 245.381V245.381ZM122.824 239.261C119.571 233.663 124.141 230.297 128.241 235.271C129.354 236.62 130.286 238.829 130.313 240.179C130.385 243.841 125.11 243.195 122.824 239.261ZM315.006 239.847C310.868 233.746 314.413 226.716 319.493 230.949C324.069 234.763 322.502 242.633 317.166 242.633C317.017 242.633 316.045 241.38 315.006 239.847ZM344.591 241.698C344.033 241.184 343.576 239.076 343.576 237.015C343.576 231.896 350.34 228.732 352.679 232.757C354.56 235.993 353.31 239.436 349.589 241.27C346.308 242.886 345.918 242.92 344.591 241.698ZM104.775 239.548C102.171 237.15 102.516 233.269 105.425 232.241C108.795 231.05 112.085 233.844 112.085 237.896C112.085 241.568 107.977 242.496 104.775 239.548ZM300.408 238.666C297.668 235.878 297.042 230.658 299.294 229.377C301.294 228.238 307.482 236.708 306.453 239.177C305.31 241.922 303.453 241.765 300.408 238.666ZM331.392 235.518C331.392 230.836 331.873 229.89 334.058 230.271C335.92 230.596 336.865 232.316 337.195 235.983C337.601 240.488 337.224 241.231 334.53 241.231C331.875 241.231 331.392 240.352 331.392 235.518V235.518ZM165.444 235.015C163.166 231.095 164.233 227.207 167.587 227.207C170.225 227.207 175.105 235.028 173.738 237.065C172.044 239.589 167.441 238.451 165.444 235.015H165.444ZM188.25 236.34C186.309 234.187 187.116 230.012 189.473 230.012C191.793 230.012 196.191 235.379 195.146 236.935C193.72 239.06 190.446 238.777 188.25 236.34V236.34ZM245.274 235.017C242.734 231.448 243.128 227.207 245.999 227.207C248.493 227.207 253.848 233.279 253.37 235.565C252.622 239.14 247.984 238.826 245.274 235.017V235.017ZM266.983 236.362C263.386 233.94 263.436 225.801 267.047 225.815C269.576 225.826 273.52 231.451 273.52 235.049C273.52 237.599 269.9 238.326 266.983 236.362H266.983ZM226.674 234.238C223.834 230.05 224.293 225.804 227.586 225.804C230.342 225.804 233.923 230.993 233.923 234.986C233.923 237.987 228.863 237.464 226.674 234.238ZM281.333 233.359C280.001 230.667 279.935 229.153 281.104 228.077C283.566 225.809 287.988 228.939 287.988 232.95C287.988 237.689 283.609 237.958 281.333 233.359ZM209.174 234.062C207.709 233.3 206.509 231.131 206.509 229.241C206.509 224.358 212.187 224.497 213.527 229.413C214.732 233.834 212.769 235.93 209.174 234.062ZM47.4858 230.2C46.8297 229.222 46.7042 228.044 47.2069 227.581C48.5699 226.326 50.056 228.172 49.3199 230.206C48.804 231.631 48.4453 231.629 47.4858 230.2V230.2ZM124.269 230.094C124.269 229.369 124.955 228.385 125.792 227.908C126.63 227.431 127.315 228.025 127.315 229.228C127.315 230.43 126.63 231.414 125.792 231.414C124.955 231.414 124.269 230.82 124.269 230.094ZM58.2326 229.039C56.7812 227.702 57.056 224.402 58.6187 224.402C60.4871 224.402 61.987 228.353 60.4505 229.227C59.7663 229.617 58.7682 229.532 58.2326 229.039ZM70.4895 227.704C69.0413 226.37 69.1704 219.113 70.6574 218.267C73.1561 216.845 75.7608 219.934 75.2755 223.745C74.7763 227.665 72.4957 229.551 70.4895 227.704ZM83.5155 224.421C80.9817 220.685 81.1264 217.39 83.8242 217.39C86.2544 217.39 90.7639 222.605 90.7639 225.415C90.7639 228.22 85.6128 227.514 83.5155 224.421ZM96.8181 220.805C94.9737 216.338 94.9537 214.967 96.7183 213.962C99.0172 212.654 102.596 214.599 103.455 217.622C105.353 224.308 99.436 227.145 96.818 220.805H96.8181ZM365.913 223.467C365.355 222.953 364.898 221.323 364.898 219.844C364.898 216.207 368.576 217.503 369.192 221.357C369.663 224.305 367.991 225.381 365.913 223.467ZM113.975 220.214C111.133 216.023 111.514 210.069 114.589 210.626C118.151 211.271 123.337 218.157 122.241 220.787C120.954 223.876 116.237 223.549 113.975 220.214ZM177.034 220.901C173.391 217.546 172.43 213.111 174.862 210.872C178.552 207.474 182.142 210.03 182.142 216.055C182.142 222.241 180.343 223.948 177.034 220.901ZM356.801 222.088C355.28 220.688 355.528 214.585 357.105 214.585C358.944 214.585 360.516 220.583 359.035 221.947C358.378 222.552 357.373 222.615 356.801 222.088V222.088ZM132.307 219.844C129.496 216.5 128.71 212.72 130.6 211.645C132.843 210.368 140.319 213.682 141.48 216.466C143.217 220.634 135.392 223.516 132.307 219.844ZM154.085 216.624C153.55 214.661 153.516 212.452 154.01 211.716C155.508 209.484 159.095 210.214 160.767 213.091C163.41 217.639 162.667 220.195 158.701 220.195C156.068 220.195 154.789 219.205 154.085 216.624H154.085ZM254.052 218.442C251.014 215.038 251.19 207.574 254.308 207.574C256.994 207.574 261.336 213.608 261.336 217.341C261.336 220.579 256.599 221.295 254.052 218.442V218.442ZM233.397 216.228C228.359 211.102 231.67 205.261 237.065 209.757C240.429 212.561 241.051 218.793 237.966 218.793C236.839 218.793 234.783 217.638 233.397 216.228V216.228ZM303.552 215.025C302.587 210.376 303.648 207.574 306.373 207.574C308.871 207.574 311.594 211.914 311.594 215.896C311.594 220.603 304.552 219.841 303.552 215.025ZM333.22 217.11C331.18 215.231 330.712 208.976 332.611 208.976C334.969 208.976 337.484 212.377 337.484 215.567C337.484 219.135 336.002 219.671 333.22 217.11V217.11ZM344.501 216.574C343.094 213.199 343.397 208.976 345.046 208.976C346.853 208.976 349.668 213.617 349.668 216.597C349.668 219.459 345.696 219.442 344.501 216.574V216.574ZM195.341 216.455C194.782 215.941 194.326 213.417 194.326 210.846C194.326 205.16 198.239 204.401 200.412 209.665C202.66 215.109 199.082 219.9 195.341 216.455V216.455ZM213.616 216.455C212.013 214.979 212.434 209.236 214.22 208.22C216.429 206.963 221.739 211.612 221.739 214.803C221.739 216.578 220.624 217.39 218.185 217.39C216.231 217.39 214.175 216.969 213.616 216.455ZM271.489 215.053C269.407 213.136 270.432 206.171 272.796 206.171C275.305 206.171 278.66 212.6 277.248 214.703C276.242 216.202 272.954 216.402 271.489 215.053V215.053ZM287.824 212.379C287.282 210.391 287.582 208.088 288.492 207.25C290.857 205.072 294.841 208.463 294.841 212.654C294.841 217.447 289.144 217.224 287.824 212.379ZM54.2128 211.079C54.2128 209.794 54.9495 208.968 55.85 209.245C56.7504 209.521 57.4871 210.347 57.4871 211.079C57.4871 211.812 56.7504 212.638 55.85 212.914C54.9495 213.191 54.2128 212.365 54.2128 211.079ZM65.1781 210.098C64.173 209.172 63.3506 206.648 63.3506 204.488C63.3506 199.244 68.933 198.906 70.3391 204.064C72.0284 210.262 69.0886 213.699 65.1781 210.098V210.098ZM77.9817 205.355C76.3542 201.45 76.9892 197.757 79.2881 197.757C81.7339 197.757 84.6721 201.916 84.6721 205.378C84.6721 208.25 79.1804 208.232 77.9817 205.355V205.355ZM145.239 202.992C140.16 199.312 140.771 191.07 145.987 192.913C149.511 194.159 151.994 201.382 149.542 203.256C148.194 204.286 146.917 204.208 145.239 202.992V202.992ZM88.9382 199.809C87.501 196.904 87.6251 195.839 89.6143 194.007C93.3695 190.549 96.8558 192.671 96.8558 198.414C96.8558 202.449 96.2855 203.366 93.7772 203.366C91.9594 203.366 89.9777 201.909 88.9382 199.809V199.809ZM105.078 198.393C103.944 194.231 104.922 192.871 108.212 194.034C111.272 195.115 111.354 201.964 108.307 201.964C107.067 201.964 105.614 200.357 105.078 198.393H105.078ZM123.07 200.299C121.091 198.476 120.61 194.582 122.185 193.132C124.134 191.337 129.022 195.147 128.55 198.092C127.979 201.653 125.586 202.616 123.07 200.299ZM166.221 198.36C163.89 195.084 163.838 194.377 165.795 192.575C167.752 190.773 168.426 190.993 171.317 194.377C173.127 196.497 174.363 198.913 174.061 199.747C172.975 202.751 168.822 202.016 166.221 198.36V198.36ZM207.607 197.257C203.541 193.217 203.572 188.876 207.661 189.624C211.12 190.257 213.973 195.252 212.686 198.42C211.621 201.041 211.353 200.979 207.607 197.257H207.607ZM226.899 197.277C222.665 193.923 222.571 189.342 226.735 189.342C229.383 189.342 235.868 197.396 234.664 199.189C233.245 201.303 231.414 200.852 226.899 197.277V197.277ZM333.893 197.616C330.772 193.512 330.721 191.282 333.723 190.221C336.872 189.109 339.899 195.136 337.869 198.476C336.522 200.692 336.176 200.617 333.893 197.616V197.616ZM356.455 199.06C355.883 198.209 356.088 196.894 356.909 196.138C357.884 195.24 358.713 195.51 359.299 196.916C360.364 199.473 357.952 201.291 356.455 199.06V199.06ZM186.78 197.133C184.595 194.708 185.217 189.083 187.756 188.314C190.186 187.577 194.886 194.39 193.779 197.045C192.663 199.724 189.155 199.768 186.78 197.133V197.133ZM246.338 196.907C242.064 194.15 242.393 188.641 246.831 188.641C248.743 188.641 250.379 190.05 251.316 192.505C253.319 197.75 250.927 199.866 246.338 196.907V196.907ZM281.439 197.476C280.434 196.551 279.612 193.959 279.612 191.717C279.612 188.576 280.164 187.835 282.021 188.491C283.346 188.96 284.733 189.343 285.104 189.343C285.475 189.343 286.474 191.026 287.323 193.083C288.475 195.872 288.369 197.114 286.905 197.97C284.269 199.51 283.58 199.448 281.439 197.476V197.476ZM296.425 197.123C294.021 194.455 294.98 190.193 298.109 189.638C300.606 189.195 304.664 196.659 302.839 198.339C301.273 199.782 298.316 199.221 296.425 197.123V197.123ZM311.898 197.476C310.893 196.551 310.071 194.658 310.071 193.269C310.071 189.605 315.609 190.045 316.673 193.793C318.086 198.767 315.481 200.776 311.898 197.476V197.476ZM346.024 196.941C344.477 193.231 344.982 190.745 347.281 190.745C348.481 190.745 349.896 192.001 350.425 193.537C352.073 198.317 347.931 201.519 346.024 196.941ZM323.27 196.822C322.712 196.308 322.255 194.684 322.255 193.213C322.255 189.391 327.457 190.646 328.072 194.616C328.54 197.641 325.618 198.984 323.27 196.822V196.822ZM48.8004 194.83C48.2376 193.991 48.4801 192.658 49.3393 191.867C51.2607 190.098 54.2128 191.592 54.2128 194.334C54.2128 196.695 50.2932 197.054 48.8004 194.83V194.83ZM261.887 194.251C260.668 191.325 262.469 187.588 264.764 188.282C267.756 189.187 268.14 196.354 265.197 196.354C263.858 196.354 262.369 195.408 261.887 194.251ZM59.381 188.758C58.1205 185.733 59.8743 181.965 62.2091 182.681C63.2557 183.003 64.112 184.738 64.112 186.538C64.112 190.381 60.7208 191.973 59.381 188.758V188.758ZM115.9 184.308C111.592 180.028 110.938 175.636 114.427 174.403C117.846 173.195 122.746 177.943 122.746 182.465C122.746 188.033 120.309 188.689 115.9 184.308ZM84.2107 183.702C81.412 180.023 82.379 176.721 86.2553 176.721C90.0096 176.721 91.7195 182.052 88.8212 184.721C86.8288 186.555 86.2905 186.436 84.2107 183.702ZM358.298 185.603C356.546 183.989 357.189 182.331 359.567 182.331C360.824 182.331 361.852 183.277 361.852 184.434C361.852 186.624 360.051 187.217 358.298 185.603ZM72.0124 184.23C69.7721 182.167 70.9503 177.915 73.6306 178.39C75.0964 178.65 76.2958 180.064 76.2958 181.532C76.2958 184.322 73.8117 185.887 72.0124 184.23V184.23ZM99.2533 182.797C97.8508 179.432 100.734 177.252 103.645 179.477C104.937 180.464 105.994 182.141 105.994 183.204C105.994 185.944 100.425 185.608 99.2533 182.797V182.797ZM135.912 181.743C132.718 177.254 132.724 174.07 135.929 172.937C139.154 171.798 144.381 177.514 143.759 181.502C143.104 185.702 138.823 185.834 135.912 181.743H135.912ZM157.378 183.556C154.15 181.893 153.694 173.916 156.826 173.916C160.928 173.916 164.785 181.285 161.856 183.524C160.662 184.436 159.107 184.447 157.378 183.556V183.556ZM347.302 182.208C345.732 179.87 349.262 177.189 351.363 179.123C353.12 180.741 352.02 183.733 349.668 183.733C348.929 183.733 347.864 183.047 347.302 182.208V182.208ZM175.34 178.176C172.358 175.142 173.14 171.112 176.71 171.112C179.517 171.112 182.676 176.222 181.545 178.934C180.408 181.663 178.543 181.435 175.34 178.176ZM215.122 178.364C212.039 175.227 211.893 171.996 214.737 169.823C216.44 168.521 217.519 169.027 220.067 172.322C221.824 174.594 223.262 177.46 223.262 178.691C223.262 181.728 218.229 181.526 215.122 178.364ZM235.75 179.245C233.413 177.094 233.377 170.185 235.695 168.866C237.952 167.581 244.583 174.546 244.583 178.202C244.583 181.338 238.769 182.025 235.75 179.245H235.75ZM288.043 178.18C286.196 176.3 285.652 174.297 286.322 171.838C287.157 168.776 287.743 168.463 290.292 169.719C293.504 171.302 295.762 177.02 294.133 179.446C292.682 181.608 291.087 181.277 288.043 178.18V178.18ZM303.372 179.102C299.647 176.594 300.621 170.41 304.741 170.41C306.963 170.41 307.922 171.499 308.286 174.438C308.923 179.568 306.906 181.482 303.372 179.102ZM340.023 179.993C338.27 178.38 338.913 176.721 341.292 176.721C342.548 176.721 343.576 177.668 343.576 178.825C343.576 181.015 341.775 181.607 340.023 179.993ZM270.241 176.109C268.235 172.055 269.437 168.307 272.743 168.307C275.623 168.307 278.836 174.308 277.575 177.333C276.197 180.641 272.149 179.965 270.241 176.109V176.109ZM316.266 176.899C314.015 173.026 314.233 169.709 316.738 169.709C319.674 169.709 322.604 173.316 322 176.187C321.255 179.724 318.133 180.111 316.266 176.899ZM329.362 178.591C327.812 177.164 328.153 171.112 329.783 171.112C331.784 171.112 336.007 176.921 335.046 178.352C334.103 179.758 330.781 179.897 329.362 178.591ZM192.963 176.198C190.911 173.921 192.29 169.709 195.087 169.709C197.123 169.709 198.894 172.699 198.894 176.135C198.894 178.673 195.229 178.712 192.963 176.198V176.198ZM253.214 177.189C251.906 175.984 251.896 170.455 253.2 169.254C254.933 167.658 258.29 171.308 258.29 174.789C258.29 177.929 255.467 179.264 253.213 177.189H253.214ZM56.7511 171.579C54.9023 169.877 55.6986 165.502 57.8572 165.502C59.8527 165.502 61.8276 168.349 61.8276 171.226C61.8276 172.713 58.2528 172.962 56.7511 171.579ZM92.5722 167.622C90.5815 163.599 91.6363 159.893 94.772 159.893C97.2536 159.893 100.405 166.478 99.2502 169.25C97.9967 172.258 94.4366 171.39 92.5722 167.622ZM67.3209 167.491C65.7423 163.703 66.3017 159.893 68.4365 159.893C70.8117 159.893 73.8523 165.396 72.892 167.956C71.9638 170.431 68.4229 170.135 67.3209 167.491V167.491ZM107.702 167.917C104.61 165.07 106.157 157.088 109.801 157.088C112.082 157.088 113.608 160.166 113.608 164.766C113.608 168.463 110.244 170.258 107.702 167.917V167.917ZM76.8107 164.863C75.4939 162.201 75.4617 160.801 76.6916 159.668C79.1112 157.44 83.1491 159.307 83.1491 162.653C83.1491 164.22 83.1854 165.975 83.2295 166.554C83.4482 169.413 78.4047 168.084 76.8106 164.863H76.8107ZM125.811 162.73C123.83 159.321 125.102 154.283 127.943 154.283C130.948 154.283 135.259 159.386 134.667 162.242C133.893 165.982 127.893 166.312 125.811 162.729V162.73ZM144.738 162.065C141.992 158.206 143.009 152.881 146.492 152.881C149.249 152.881 152.074 159.353 150.857 162.883C149.632 166.437 147.662 166.174 144.738 162.065V162.065ZM352.714 159.776C352.714 156.358 356.273 156.841 357.014 160.359C357.305 161.743 356.528 162.697 355.11 162.697C353.697 162.697 352.714 161.498 352.714 159.776V159.776ZM164.652 159.542C162.838 154.582 163.254 152.253 166.05 151.727C169.325 151.111 173.004 154.831 173.004 158.758C173.004 161.725 165.702 162.41 164.652 159.542ZM183.683 158.522C181.897 155.449 182.881 150.076 185.231 150.076C187.612 150.076 192.913 156.223 192.453 158.45C191.749 161.856 185.65 161.907 183.683 158.522V158.522ZM205.857 159.091C203.044 156.501 202.717 152.069 205.233 150.637C207.425 149.389 212.601 155.015 212.601 158.646C212.601 161.866 209.119 162.096 205.857 159.091ZM225.633 158.178C222.692 154.312 222.584 150.616 225.382 149.627C227.697 148.809 235.84 158.17 234.522 160.133C233.019 162.373 227.981 161.265 225.633 158.178ZM275.708 156.448C274.36 154.554 273.699 152.345 274.24 151.54C275.987 148.937 280.567 149.985 282.58 153.448C286.286 159.825 280.048 162.548 275.708 156.448ZM331.465 157.212C330.401 155.381 330.375 154.161 331.388 153.584C333.426 152.424 335.961 153.978 335.961 156.387C335.961 159.629 333.168 160.142 331.465 157.212ZM243.658 154.882C242.527 150.733 244.803 147.913 248.288 149.144C249.729 149.654 250.675 151.673 250.675 154.239C250.675 159.841 245.148 160.347 243.658 154.882ZM319.513 156.807C316.785 154.295 317.296 151.204 320.351 151.74C321.817 151.998 323.235 153.622 323.503 155.349C324.038 158.802 322.349 159.419 319.513 156.807ZM291.811 155.002C289.576 152.522 290.813 148.673 293.846 148.673C296.894 148.673 299.913 152.456 298.867 154.966C297.738 157.674 294.236 157.692 291.811 155.002V155.002ZM52.7382 151.128C52.7829 146.92 52.9503 146.769 54.9181 149.16C56.0904 150.585 56.6806 152.636 56.2297 153.718C54.7418 157.289 52.6889 155.766 52.7382 151.128V151.128ZM84.6765 147.983C82.5433 142.816 82.7693 140.305 85.4529 139.357C89.1654 138.045 92.4925 141.653 91.9839 146.439C91.3782 152.139 86.7927 153.108 84.6765 147.983V147.983ZM62.4063 148.039C61.9396 146.919 61.983 145.369 62.5029 144.595C63.9745 142.402 67.9195 144.461 67.9195 147.421C67.9195 150.532 63.6447 151.011 62.4064 148.039H62.4063ZM74.0113 145.869C74.0113 144.061 74.7826 143.067 75.915 143.415C76.9621 143.736 77.8187 144.84 77.8187 145.869C77.8187 146.897 76.9621 148.002 75.915 148.323C74.7826 148.671 74.0113 147.676 74.0113 145.869ZM99.6689 145.257C97.3687 140.608 99.0432 137.147 103.322 137.707C107.281 138.224 108.803 143.453 105.924 146.647C103.313 149.544 101.602 149.164 99.6689 145.257ZM134.463 140.61C133.513 136.149 135.213 133.912 138.635 135.121C142.263 136.403 141.847 144.466 138.153 144.466C136.239 144.466 135.012 143.184 134.463 140.61ZM340.53 142.277C335.106 140.569 332.861 137.115 336.01 135.323C336.967 134.779 338.512 135.035 339.445 135.894C340.377 136.752 342.716 137.454 344.642 137.454C347.094 137.454 348.145 138.271 348.145 140.176C348.145 143.869 346.781 144.246 340.53 142.277V142.277ZM157.034 140.78C155.67 139.523 154.935 137.578 155.402 136.458C155.869 135.337 156.251 134.156 156.251 133.834C156.251 131.802 160.89 133.839 162.993 136.793C167.036 142.475 162.309 145.637 157.034 140.78ZM176.416 138.876C173.82 135.048 174.047 130.524 176.885 129.521C179.96 128.435 183.554 132.857 183.616 137.805C183.675 142.48 179.301 143.13 176.416 138.876V138.876ZM196.787 139.52C192.554 135.623 194.079 127.638 199.057 127.638C201.891 127.638 202.011 128.004 202.575 138.389C202.751 141.64 199.73 142.231 196.787 139.52ZM326.273 139.558C325.739 138.277 326.269 137.454 327.633 137.454C328.863 137.454 329.869 138.401 329.869 139.558C329.869 140.715 329.257 141.662 328.509 141.662C327.761 141.662 326.755 140.715 326.273 139.558ZM213.218 136.746C211.203 133.915 211.085 132.826 212.607 131.137C213.647 129.984 215.424 129.04 216.556 129.04C219.02 129.04 223.774 136.96 222.473 138.898C220.765 141.443 215.726 140.272 213.218 136.746V136.746ZM268.037 139.186C265.771 137.793 262.859 132.533 262.859 129.834C262.859 126.243 268.5 127.323 271.759 131.538C273.956 134.378 274.377 136.093 273.31 137.849C271.712 140.478 270.598 140.761 268.037 139.186V139.186ZM299.41 136.987C299.41 132.766 300.889 131.468 303.458 133.431C306.642 135.864 305.997 140.259 302.456 140.259C300.28 140.259 299.41 139.324 299.41 136.987ZM312.662 139.373C311.029 137.869 311.392 132.126 313.184 131.106C315.632 129.713 319.41 133.354 318.901 136.616C318.446 139.54 314.66 141.212 312.662 139.373ZM249.213 136.821C246.843 134.191 247.775 129.741 250.696 129.741C252.137 129.741 253.133 131.398 253.437 134.299C253.944 139.145 252.23 140.168 249.213 136.821V136.821ZM281.414 133.598C281.761 130.824 282.751 129.741 284.942 129.741C287.133 129.741 288.123 130.824 288.47 133.598C288.888 136.941 288.418 137.454 284.942 137.454C281.466 137.454 280.996 136.941 281.414 133.598ZM232.997 132.443C231.521 127.028 234.689 124.915 238.72 128.627C242.481 132.09 241.587 136.052 237.045 136.052C235.023 136.052 233.646 134.825 232.997 132.443V132.443ZM59.3072 131.083C58.8112 129.893 58.7871 128.568 59.2536 128.138C60.5873 126.91 63.3505 128.993 63.3505 131.226C63.3505 133.917 60.4453 133.815 59.3071 131.083H59.3072ZM68.6337 130.372C67.1865 128.216 69.1688 126.825 71.1235 128.625C72.2172 129.632 72.2435 130.416 71.2033 131.008C70.3505 131.494 69.1942 131.207 68.6336 130.372H68.6337ZM79.5046 129.627C77.6598 125.2 79.9116 121.51 83.6516 122.832C87.4041 124.158 87.1145 131.845 83.3121 131.845C81.7264 131.845 80.0131 130.847 79.5046 129.627ZM93.8504 127.728C91.7174 122.986 92.6065 119.223 95.86 119.223C99.2445 119.223 101.689 122.903 101.154 127.19C100.465 132.708 96.231 133.02 93.8504 127.728V127.728ZM109.142 127.814C107.06 124.231 107.056 119.651 109.136 118.468C111.854 116.921 116.843 122.237 116.346 126.15C115.785 130.576 111.344 131.602 109.143 127.814H109.142ZM345.087 124.812C343.783 122.569 343.95 121.808 345.897 121.12C349.03 120.013 351.871 122.58 350.68 125.44C349.421 128.46 347.053 128.194 345.087 124.812V124.812ZM145.644 122.12C143.458 118.359 143.675 115.455 146.209 114.56C149.006 113.571 153.206 117.91 153.206 121.788C153.206 125.697 147.86 125.932 145.644 122.12ZM164.77 121.789C161.691 117.742 161.661 113.767 164.701 112.693C167.812 111.593 171.563 116.187 171.09 120.518C170.59 125.102 167.728 125.678 164.77 121.789H164.77ZM203.904 119.897C201.562 115.374 201.551 114.773 203.782 112.719C206.812 109.93 208.784 110.991 211.936 117.109C214.679 122.431 213.903 124.833 209.441 124.833C207.531 124.833 205.542 123.06 203.904 119.897H203.904ZM183.724 119.325C182.172 116.655 182.998 112.211 185.046 112.211C187.258 112.211 189.757 115.708 189.757 118.803C189.757 122.762 185.915 123.094 183.724 119.325V119.325ZM223.315 119.315C220.37 114.246 222.418 108.658 226.671 110.16C229.571 111.185 233.092 118.459 231.695 120.54C230.063 122.971 225.011 122.232 223.315 119.315ZM328.727 121.099C326.519 120.278 326.165 115.556 328.224 114.384C330.319 113.192 334.438 117.591 333.449 119.964C332.553 122.116 331.892 122.274 328.727 121.099ZM66.7172 116.662C64.7617 111.497 66.9815 107.54 71.1515 108.759C72.8048 109.242 75.0657 108.944 76.1758 108.095C79.1796 105.8 83.3902 107.846 82.8473 111.337C82.498 113.584 81.4044 114.255 78.3877 114.074C75.4929 113.9 73.9276 114.77 72.7108 117.23C70.4967 121.704 68.5564 121.521 66.7172 116.662ZM255.965 118.873C254.976 116.418 257.449 108.672 259.161 108.863C261.43 109.115 264.098 115.012 263.267 117.939C262.418 120.928 257.069 121.612 255.965 118.873V118.873ZM271.202 116.28C270.028 111.357 271.798 108.886 275.55 110.212C277.229 110.805 278.089 112.719 278.089 115.867C278.089 119.625 277.474 120.625 275.164 120.625C273.131 120.625 271.922 119.299 271.202 116.28ZM289.765 118.288C288.337 116.974 288.496 112.211 289.968 112.211C292.241 112.211 294.607 115.349 293.798 117.29C292.925 119.385 291.373 119.769 289.765 118.288ZM57.6346 114.801C56.4262 113.688 56.3479 112.376 57.3836 110.594C59.6529 106.689 61.8276 107.481 61.8276 112.211C61.8276 116.66 60.5261 117.464 57.6346 114.801V114.801ZM88.5925 109.873C87.4453 107.12 89.7759 104.471 92.1542 105.825C94.5544 107.191 94.1882 112.211 91.6884 112.211C90.5215 112.211 89.1284 111.159 88.5925 109.873V109.873ZM102.018 108.807C100.772 105.817 101.936 100.586 103.987 99.965C106.933 99.0721 109.418 104.732 107.517 108.004C105.608 111.288 103.199 111.64 102.018 108.807V108.807ZM138.269 107.59C134.183 103.585 133.793 98.1686 137.595 98.2314C140.88 98.2857 145.972 104.451 145.313 107.577C144.558 111.161 141.917 111.166 138.269 107.589V107.59ZM334.819 106.463C331.053 105.174 330.393 102.473 333.209 99.8801C334.617 98.5843 335.818 98.8923 338.54 101.246C340.472 102.918 342.053 104.739 342.053 105.294C342.053 107.072 338.349 107.671 334.819 106.463V106.463ZM159.021 104.849C157.712 103.885 156.263 101.637 155.803 99.8546C154.575 95.1061 158.979 94.0971 162.504 98.3191C167.647 104.479 165.073 109.304 159.021 104.849ZM116.654 103.096C116.654 101.81 117.391 100.985 118.292 101.261C119.192 101.537 119.929 102.363 119.929 103.096C119.929 103.828 119.192 104.654 118.292 104.931C117.391 105.207 116.654 104.381 116.654 103.096ZM177.192 103.682C173.779 101.855 173.508 92.8499 176.831 91.6758C180.735 90.2963 183.862 93.9769 183.361 99.3613C182.86 104.749 181.268 105.864 177.192 103.682ZM194.706 103.102C191.696 99.9533 192.284 93.9803 195.604 93.9803C198.36 93.9803 201.94 99.1683 201.94 103.162C201.94 105.755 197.206 105.716 194.706 103.102V103.102ZM307.33 102.114C304.294 99.3185 305.058 93.9803 308.494 93.9803C311.589 93.9803 314.64 97.7631 314.64 101.601C314.64 104.192 309.944 104.522 307.33 102.114V102.114ZM261.439 99.7666C258.998 95.5669 259.471 92.0466 262.729 90.1732C266.71 87.8838 269.316 90.8903 268.674 97.0325C268.106 102.468 263.927 104.047 261.439 99.7666ZM230.369 100.057C228.287 98.1401 229.312 91.1755 231.676 91.1755C234.185 91.1755 237.54 97.6042 236.128 99.7075C235.122 101.206 231.834 101.406 230.369 100.057V100.057ZM246.09 98.1584C244.243 94.9821 245.229 92.5779 248.378 92.5779C250.753 92.5779 252.882 97.4362 251.445 99.5772C249.956 101.796 247.885 101.247 246.09 98.1584V98.1584ZM278.639 98.8886C277.562 96.3037 278.975 92.5779 281.033 92.5779C283.109 92.5779 286.061 97.9226 284.923 99.6188C283.519 101.71 279.626 101.257 278.639 98.8886ZM65.8474 97.2147C64.0272 95.5386 64.864 92.5782 67.158 92.5782C68.4144 92.5782 69.4424 93.4876 69.4424 94.599C69.4424 96.9419 67.2687 98.5235 65.8474 97.2147ZM86.195 91.877C86.195 87.7614 86.7154 86.8553 88.8602 87.2356C90.6857 87.5594 91.5254 89.0218 91.5254 91.877C91.5254 94.7323 90.6857 96.1947 88.8602 96.5184C86.7154 96.8987 86.195 95.9926 86.195 91.877ZM110.562 86.5151C110.562 83.276 111.408 81.3605 113.102 80.762C116.646 79.5097 118.504 81.7047 117.916 86.4472C117.552 89.3802 116.485 90.5964 113.989 90.9228C111.002 91.3135 110.562 90.7486 110.562 86.5151ZM149.763 88.1944C148.306 87.4436 147.114 85.3202 147.114 83.4758C147.114 77.6236 151.074 77.7261 154.468 83.6661C156.671 87.5196 153.805 90.2774 149.763 88.1944V88.1944ZM324.587 87.96C323.935 86.5769 323.829 85.0518 324.351 84.5709C325.897 83.1468 327.144 85.1472 326.432 87.9107C325.801 90.3606 325.719 90.3628 324.587 87.96V87.96ZM189.884 84.9902C186.154 81.3336 186.111 76.7307 189.801 76.0763C192.582 75.583 197.974 83.5003 196.79 86.3401C195.593 89.2147 193.846 88.8734 189.884 84.9902ZM166.874 82.6956C165.57 80.4515 165.554 79.2444 166.813 78.0848C169.134 75.9477 173.765 78.6852 173.765 82.194C173.765 85.9599 168.974 86.3087 166.874 82.6956H166.874ZM222.544 83.303C218.065 79.1777 220.504 74.7546 226.321 76.4548C228.204 77.005 229.354 78.5776 229.354 80.6024C229.354 84.6735 225.635 86.1485 222.544 83.303V83.303ZM237.634 82.122C233.444 76.2334 238.569 73.2099 243.771 78.5022C246.759 81.5426 245.968 85.5663 242.382 85.5663C241.118 85.5663 238.982 84.0164 237.634 82.122ZM298.969 81.3606C298.531 79.8187 298.732 78.239 299.416 77.85C301.707 76.5458 305.502 78.8272 305.502 81.5092C305.502 85.1219 300.002 84.9967 298.969 81.3606V81.3606ZM255.549 81.0787C253.016 78.7468 253.264 75.8231 256.079 74.8285C258.514 73.968 262.723 77.8317 262.811 81.0086C262.872 83.2424 257.95 83.2899 255.549 81.0787ZM272.05 80.049C269.727 76.0513 270.117 74.3472 273.357 74.3472C276.205 74.3472 278.089 76.9054 278.089 80.7727C278.089 83.6982 273.878 83.1936 272.05 80.049H272.05ZM287.226 80.7407C287.226 79.6293 287.912 78.3299 288.749 77.8532C289.587 77.3765 290.272 78.2859 290.272 79.874C290.272 81.4621 289.587 82.7615 288.749 82.7615C287.912 82.7615 287.226 81.8522 287.226 80.7407ZM76.2307 74.4442C77.357 72.7661 74.4921 71.1034 72.4635 72.2578C70.7603 73.2271 71.8784 75.7496 74.0113 75.7496C74.7501 75.7496 75.7488 75.1622 76.2307 74.4442ZM91.4358 72.1991C93.0617 71.0667 96.5798 70.1401 99.2537 70.1401C102.804 70.1401 104.326 69.3976 104.897 67.3869C106.046 63.3423 102.688 61.353 97.6747 63.1081C95.4085 63.9015 92.9203 64.1898 92.1455 63.7489C88.973 61.9434 84.6721 64.7344 84.6721 68.5985C84.6721 74.6232 86.5329 75.6138 91.4358 72.1991V72.1991ZM122.549 61.5255C124.931 56.2478 125.364 53.8252 124.164 52.4934C121.593 49.6412 118.381 51.7111 116.693 57.3076C112.868 69.9868 117.292 73.1732 122.549 61.5255V61.5255ZM141.843 64.4422C142.393 63.6223 141.839 61.8869 140.612 60.5857C139.385 59.2845 138.404 56.1388 138.432 53.5953C138.46 51.0518 137.341 47.919 135.945 46.6335C133.576 44.452 133.407 44.6847 133.407 50.1235C133.407 53.3285 134.126 56.3597 135.004 56.8596C136.097 57.4818 136.044 58.3866 134.833 59.7292C133.861 60.8077 133.464 62.6447 133.95 63.8115C134.962 66.24 140.347 66.6703 141.843 64.4422V64.4422ZM159.933 62.2242C160.461 60.9557 159.849 58.855 158.573 57.556C157.13 56.0884 156.251 52.4801 156.251 48.0249C156.251 40.3274 154.234 37.7401 150.739 40.9575C147.142 44.2702 147.575 53.0639 151.459 55.5689C153.285 56.7469 154.365 58.3287 153.858 59.0842C152.484 61.1309 154.322 64.5306 156.802 64.5306C157.995 64.5306 159.404 63.4927 159.933 62.2242ZM195.579 56.5809C195.308 55.2962 194.315 54.0084 193.371 53.719C191.136 53.0339 189.437 57.1877 190.588 60.5253C191.389 62.8502 191.739 62.9052 193.779 61.0267C195.04 59.8661 195.85 57.8655 195.579 56.5809V56.5809ZM209.521 58.9529C212.611 56.1076 212.226 51.9091 208.875 51.9091C207.082 51.9091 203.463 57.5796 203.463 60.3894C203.463 62.5853 206.309 61.9105 209.521 58.9529ZM230.091 57.5888C230.61 56.0847 229.97 52.9607 228.671 50.6465C227.371 48.3323 226.308 45.5588 226.308 44.483C226.308 43.4073 224.961 41.4048 223.315 40.0331C220.42 37.6205 220.26 37.6646 218.42 41.3829C216.712 44.8346 216.88 45.4966 220.066 47.8722C222.273 49.5175 223.335 51.5008 222.876 53.1178C221.239 58.8821 228.166 63.1744 230.091 57.5888ZM173.766 48.9875C173.766 46.5411 172.924 45.5984 170.74 45.5984C167.167 45.5984 165.655 50.3138 168.666 52.0689C171.817 53.9054 173.766 52.7278 173.766 48.9875ZM189.757 47.8737C189.757 43.8334 186.033 41.5688 183.68 44.1787C182.155 45.8716 182.152 46.7241 183.665 48.4032C186.304 51.3319 189.757 51.0319 189.757 47.8737H189.757ZM207.719 45.521C207.965 43.9359 206.755 41.4625 205.029 40.0246C201.966 37.4722 201.84 37.4741 199.68 40.102C197.278 43.0248 196.734 46.6471 198.457 48.2339C200.74 50.3368 207.267 48.4251 207.719 45.5211V45.521ZM241.537 44.3461C241.537 41.0131 237.962 38.5569 235.308 40.0671C233.698 40.9834 233.454 45.4006 234.938 46.7671C235.496 47.2813 237.21 47.702 238.745 47.702C240.675 47.702 241.537 46.6654 241.537 44.3461V44.3461ZM255.244 44.8145C255.244 44.0887 254.216 43.4948 252.96 43.4948C250.605 43.4948 249.934 45.1496 251.649 46.729C252.866 47.8494 255.244 46.5828 255.244 44.8145Z" fill="black"/>
<path d="M552.95 228.2L563.4 227.65C565.967 227.65 567.25 228.383 567.25 229.85C567.25 233.517 562.85 235.35 554.05 235.35C531.683 235.35 507.85 228.017 482.55 213.35C457.25 198.683 444.6 183.283 444.6 167.15C444.6 145.883 455.233 135.25 476.5 135.25C481.633 135.25 487.317 135.8 493.55 136.9C617.85 168.8 706.583 184.75 759.75 184.75C792.383 184.75 808.7 177.6 808.7 163.3C808.7 153.4 798.433 145.15 777.9 138.55L748.2 127C748.2 125.167 750.583 124.25 755.35 124.25C769.65 124.25 784.867 130.667 801 143.5C817.133 155.967 825.2 168.433 825.2 180.9C825.2 195.2 811.267 202.35 783.4 202.35H781.2C743.433 200.883 712.083 197.583 687.15 192.45C616.75 178.15 576.783 170.083 567.25 168.25C557.717 166.05 550.017 164.4 544.15 163.3C538.65 162.2 531.317 160.917 522.15 159.45C506.017 156.883 490.8 155.6 476.5 155.6C462.2 155.6 455.05 159.45 455.05 167.15C455.05 180.717 467.333 194.283 491.9 207.85C516.833 221.417 537.183 228.2 552.95 228.2ZM710.25 207.3C710.25 208.4 709.333 210.783 707.5 214.45L672.85 249.1C610.15 319.133 578.8 381.1 578.8 435C578.8 445.267 584.117 450.4 594.75 450.4C602.083 450.4 610.883 447.833 621.15 442.7L634.9 435C636.367 435 637.1 435.367 637.1 436.1C637.1 440.5 631.233 444.9 619.5 449.3C607.767 454.067 599.883 456.45 595.85 456.45C585.95 456.45 578.25 452.967 572.75 446C567.25 439.4 564.5 428.95 564.5 414.65C564.5 400.717 571.833 376.15 586.5 340.95C601.533 305.75 619.867 273.3 641.5 243.6C663.5 213.9 682.2 199.05 697.6 199.05C706.033 199.05 710.25 201.8 710.25 207.3ZM832.139 147.35L812.889 151.2C811.056 151.2 810.139 150.1 810.139 147.9C810.139 142.4 817.106 139.65 831.039 139.65C845.339 139.65 855.789 142.217 862.389 147.35C869.356 152.483 872.839 159.083 872.839 167.15C872.839 174.85 864.589 195.567 848.089 229.3L815.639 295.85L783.189 370.65C798.223 357.45 813.073 342.05 827.739 324.45C842.773 306.483 853.956 292.183 861.289 281.55C868.989 270.55 873.389 265.05 874.489 265.05H877.239C890.439 265.05 897.039 267.617 897.039 272.75C897.039 271.283 896.123 272.2 894.289 275.5C884.023 294.2 874.856 316.75 866.789 343.15C858.723 369.55 854.689 386.783 854.689 394.85C854.689 417.217 858.539 428.4 866.239 428.4C868.806 428.4 874.123 424.917 882.189 417.95C883.289 417.95 883.839 419.417 883.839 422.35C883.839 431.883 878.523 436.65 867.889 436.65C857.623 436.65 849.189 431.333 842.589 420.7C835.989 410.067 832.689 397.6 832.689 383.3C832.689 369 836.173 352.317 843.139 333.25C819.306 357.45 796.573 377.8 774.939 394.3C767.606 414.467 763.939 428.583 763.939 436.65V439.4C767.239 441.6 768.889 443.433 768.889 444.9C768.889 448.2 766.689 449.85 762.289 449.85C760.089 449.85 758.073 448.933 756.239 447.1C736.806 426.933 727.089 415.75 727.089 413.55C727.089 411.35 728.189 410.25 730.389 410.25H731.489C741.389 404.383 749.639 398.883 756.239 393.75C763.573 365.883 774.573 335.083 789.239 301.35L820.589 229.3C834.523 197.4 841.856 174.117 842.589 159.45C842.589 151.383 839.106 147.35 832.139 147.35ZM751.839 432.8C751.473 430.967 751.289 428.217 751.289 424.55C751.289 421.25 751.839 416.3 752.939 409.7C744.506 414.1 739.556 416.483 738.089 416.85C741.389 422.35 745.973 427.667 751.839 432.8ZM996.998 184.75C997.731 184.75 998.098 185.667 998.098 187.5L995.348 203.45C989.848 226.183 981.414 237.55 970.048 237.55C961.614 237.55 955.014 235.35 950.248 230.95C964.181 221.417 979.764 206.017 996.998 184.75ZM968.398 274.95C957.031 294.383 946.214 319.133 935.948 349.2C925.681 378.9 920.548 399.433 920.548 410.8C920.548 422.167 922.931 427.85 927.698 427.85C930.998 427.85 935.214 425.833 940.348 421.8C945.481 417.767 948.598 415.2 949.698 414.1C950.798 413 952.081 411.9 953.548 410.8C955.014 410.8 955.748 411.533 955.748 413C955.748 417.4 950.431 422.533 939.798 428.4C929.531 434.633 922.014 437.75 917.248 437.75C903.314 437.75 896.348 427.667 896.348 407.5C896.348 377.433 907.348 337.283 929.348 287.05C929.348 285.583 930.264 282.833 932.098 278.8C934.298 274.767 935.948 272.2 937.048 271.1C939.614 268.533 943.098 267.25 947.498 267.25C960.331 267.25 967.298 269.817 968.398 274.95ZM1218.81 304.1C1204.14 344.433 1196.81 373.4 1196.81 391C1196.81 408.233 1199.93 416.85 1206.16 416.85C1207.26 413.917 1208.54 409.883 1210.01 404.75C1211.11 407.317 1211.66 411.167 1211.66 416.3C1211.66 425.833 1208.73 430.6 1202.86 430.6C1183.79 430.6 1174.26 414.1 1174.26 381.1C1174.26 365.333 1176.83 344.8 1181.96 319.5C1173.53 327.933 1165.09 338.383 1156.66 350.85L1128.06 391C1112.29 413.367 1102.58 424.55 1098.91 424.55C1086.44 424.55 1080.21 422.35 1080.21 417.95C1080.21 416.85 1082.23 408.233 1086.26 392.1C1099.09 344.433 1105.51 311.983 1105.51 294.75C1105.51 287.05 1103.13 283.2 1098.36 283.2C1084.79 283.2 1066.46 303.183 1043.36 343.15C1035.29 357.817 1026.31 376.15 1016.41 398.15C1006.88 419.783 1001.74 430.6 1001.01 430.6C997.344 430.6 993.494 429.683 989.461 427.85C985.428 426.017 983.411 423.817 983.411 421.25C983.411 415.017 989.461 393.017 1001.56 355.25C1013.66 317.117 1019.71 288.517 1019.71 269.45C1019.71 263.217 1017.14 259.917 1012.01 259.55C1006.88 258.817 1004.31 257.717 1004.31 256.25C1004.31 252.95 1007.06 251.3 1012.56 251.3C1037.13 251.3 1049.41 261.383 1049.41 281.55C1049.41 291.817 1045.19 308.867 1036.76 332.7L1049.41 311.25C1059.68 294.383 1069.03 282.1 1077.46 274.4C1086.26 266.7 1095.43 262.85 1104.96 262.85C1105.33 262.85 1105.69 262.85 1106.06 262.85C1122.93 262.85 1131.36 274.217 1131.36 296.95C1131.36 315.283 1124.58 344.617 1111.01 384.95L1186.36 303.55C1191.13 300.617 1197.73 299.15 1206.16 299.15C1214.59 299.15 1218.81 300.8 1218.81 304.1ZM1311.88 149L1292.63 152.85C1290.06 152.85 1288.78 151.75 1288.78 149.55C1288.78 144.05 1295.56 141.3 1309.13 141.3C1322.7 141.3 1333.33 143.683 1341.03 148.45C1348.73 153.217 1352.58 160 1352.58 168.8C1352.58 177.233 1345.43 195.567 1331.13 223.8L1302.53 279.9C1314.26 271.833 1327.65 267.8 1342.68 267.8C1367.98 267.8 1380.63 280.083 1380.63 304.65C1380.63 332.883 1367.06 363.867 1339.93 397.6C1313.16 431.333 1287.68 448.2 1263.48 448.2C1245.51 448.2 1230.85 439.217 1219.48 421.25C1218.75 419.783 1218.38 418.867 1218.38 418.5C1218.38 418.133 1218.75 417.583 1219.48 416.85C1231.21 425.283 1242.4 429.5 1253.03 429.5C1277.23 429.5 1300.15 414.65 1321.78 384.95C1343.78 354.883 1354.78 325.183 1354.78 295.85C1354.78 284.483 1350.93 278.8 1343.23 278.8C1327.46 278.8 1308.76 294.933 1287.13 327.2C1265.5 359.1 1254.68 384.4 1254.68 403.1C1254.68 406.033 1255.96 410.433 1258.53 416.3C1258.53 417.4 1256.88 417.95 1253.58 417.95C1250.65 417.95 1248.08 415.383 1245.88 410.25C1243.68 405.117 1242.58 399.25 1242.58 392.65C1242.58 372.117 1251.38 341.5 1268.98 300.8L1309.13 208.4C1317.56 185.3 1321.78 169.717 1321.78 161.65C1321.78 153.217 1318.48 149 1311.88 149ZM1427.88 425.65L1436.68 422.9C1438.51 422.9 1439.43 423.817 1439.43 425.65C1439.43 431.517 1433.01 434.45 1420.18 434.45C1402.58 434.45 1393.78 419.783 1393.78 390.45C1393.78 371.017 1399.64 340.217 1411.38 298.05C1423.11 255.517 1437.96 215.733 1455.93 178.7C1473.89 141.667 1490.03 123.15 1504.33 123.15C1512.39 123.15 1520.46 125.9 1528.53 131.4C1536.59 136.533 1540.63 142.217 1540.63 148.45C1540.63 174.85 1501.76 233.517 1424.03 324.45C1417.79 351.583 1414.68 375.233 1414.68 395.4C1414.68 415.567 1419.08 425.65 1427.88 425.65ZM1527.43 146.8C1527.43 142.4 1526.14 140.2 1523.58 140.2C1512.58 140.2 1496.63 159.817 1475.73 199.05C1454.83 237.917 1438.88 274.95 1427.88 310.15C1494.24 223.25 1527.43 168.8 1527.43 146.8ZM1598.69 344.25C1600.89 344.25 1601.99 345.167 1601.99 347C1601.99 348.467 1601.63 349.933 1600.89 351.4C1562.39 407.5 1530.49 435.55 1505.19 435.55C1474.03 435.55 1458.44 421.067 1458.44 392.1C1458.44 369.733 1469.44 342.6 1491.44 310.7C1513.81 278.8 1535.44 262.85 1556.34 262.85C1565.14 262.85 1572.84 265.783 1579.44 271.65C1586.41 277.15 1589.89 283.933 1589.89 292C1589.89 305.933 1581.28 319.683 1564.04 333.25C1546.81 346.817 1530.13 353.6 1513.99 353.6C1510.69 353.6 1509.04 352.867 1509.04 351.4L1510.69 348.65C1552.86 335.45 1573.94 313.817 1573.94 283.75C1573.94 279.35 1572.48 277.15 1569.54 277.15C1565.14 277.15 1557.81 281.367 1547.54 289.8C1529.58 304.467 1513.99 322.8 1500.79 344.8C1487.59 366.8 1480.99 385.317 1480.99 400.35C1480.99 415.383 1486.68 422.9 1498.04 422.9C1510.88 422.9 1525.36 416.117 1541.49 402.55C1551.76 393.017 1563.68 380.917 1577.24 366.25C1591.18 351.583 1598.33 344.25 1598.69 344.25Z" fill="black"/>
</svg>
